<svg id="a165df01-6fd7-49ff-a945-9d618dc9c4d3" data-name="soupladellogo" xmlns="http://www.w3.org/2000/svg" viewBox="0 0 277.95 250.12" preserveAspectRatio="none"><title>souplogo</title><path id="70a1e032-2fe8-4eef-9ea8-8f5147c9ec1b" data-name="logopath2" d="M1.22,166.81l148.53,22.95c-3.41,6-38.13,65.43-83.56,60C18.64,244.1,2.43,172.48,1.22,166.81Z" transform="translate(-1.22 0.01)" style="fill:#21d646"/><ellipse id="02b9c9fe-0761-4e32-b9d4-7184d2cc9a5a" data-name="logopath3" cx="76.98" cy="178.27" rx="6.09" ry="76.6" transform="translate(-112.18 227.14) rotate(-81.22)" style="fill:#21d646"/><path id="06345e0e-0452-49a5-ae29-3c2c207b9cec" data-name="logopath4" d="M139.24,186.89c.12-12.89,2.33-100.2,70.68-151A166.31,166.31,0,0,1,278,6.38" transform="translate(-1.22 0.01)" style="fill:none;stroke:#21d646;stroke-miterlimit:10;stroke-width:13px"/><path id="6043857f-ab39-42df-8424-ff2fe558bdde" data-name="logopath5" d="M54.06,125.34c-4.27,3.78-8.43,8.74-7.71,13.93.8,6.08,7.69,8.27,7.52,13.09-.1,2.87-2.68,6.59-12.8,10.75" transform="translate(-1.22 0.01)" style="fill:none;stroke:#21d646;stroke-miterlimit:10;stroke-width:8px"/><path id="5c4f5fcd-a541-435a-96e4-e740c96c5e87" data-name="logopath6" d="M85.09,135.86c-4.27,3.78-8.43,8.73-7.71,13.92.8,6.1,7.69,8.27,7.51,13.1-.09,2.86-2.67,6.59-12.79,10.76" transform="translate(-1.22 0.01)" style="fill:none;stroke:#21d646;stroke-miterlimit:10;stroke-width:8px"/><path id="0fb7229c-7bf3-4a9c-b1cf-edd1c76b7425" data-name="logopath7" d="M114.64,134.7c-4.28,3.78-8.44,8.74-7.72,13.93.81,6.08,7.7,8.27,7.53,13.09-.11,2.87-2.69,6.59-12.8,10.76" transform="translate(-1.22 0.01)" style="fill:none;stroke:#21d646;stroke-miterlimit:10;stroke-width:8px"/></svg>