<svg id="0cb60028-3a23-4b84-af7c-d178014b0b7e" data-name="Layer 1" xmlns="http://www.w3.org/2000/svg" viewBox="0 0 138.55735 118.66959"><title>brain</title><path d="M844.13058,1453.26029c1.50223-1.77357,11.46469,1.74451,16.45281,9.52532,2.49671,3.89455,1.16984,4.83664,3.46375,8.65937,5.80814,9.679,18.89392,11.84047,20.7825,12.12312,4.80948.7198,5.82684-.26289,12.98906.86594,4.99722.78761,7.49583,1.18136,10.39125,2.59781,2.92043,1.42866,3.84667,2.6188,6.06156,2.59781,2.98343-.02827,3.12528-2.56731,6.9275-3.46375,4.78549-1.12824,6.9988.9457,11.25719-.86593,2.28894-.97376,2.00427-1.724,4.32968-2.59781,3.73325-1.403,8.75108-1.07952,9.52532.86593.93993,2.36188-4.6198,6.499-5.19563,6.9275-2.33344,1.73637-4.8728,2.88465-10.39125,4.32969-7.49281,1.96205-11.23921,2.9431-13.855,2.59781-8.48707-1.12026-9.9772-7.821-16.45281-6.9275-3.47479.47948-4.15781,2.56235-9.52531,3.46375a27.883,27.883,0,0,1-7.79343,0c-10.63-1.581-18.74-11.18525-26.84406-20.7825a101.87526,101.87526,0,0,1-6.9275-9.52531C845.28615,1457.40442,843.26613,1454.28083,844.13058,1453.26029Z" transform="translate(-830.14152 -1380.33333)" style="fill:aqua"/><path d="M844.13058,1453.26029c1.50223-1.77357,11.46469,1.74451,16.45281,9.52532,2.49671,3.89455,1.16984,4.83664,3.46375,8.65937,5.80814,9.679,18.89392,11.84047,20.7825,12.12312,4.80948.7198,5.82684-.26289,12.98906.86594,4.99722.78761,7.49583,1.18136,10.39125,2.59781,2.92043,1.42866,3.84667,2.6188,6.06156,2.59781,2.98343-.02827,3.12528-2.56731,6.9275-3.46375,4.78549-1.12824,6.9988.9457,11.25719-.86593,2.28894-.97376,2.00427-1.724,4.32968-2.59781,3.73325-1.403,8.75108-1.07952,9.52532.86593.93993,2.36188-4.6198,6.499-5.19563,6.9275-2.33344,1.73637-4.8728,2.88465-10.39125,4.32969-7.49281,1.96205-11.23921,2.9431-13.855,2.59781-8.48707-1.12026-9.9772-7.821-16.45281-6.9275-3.47479.47948-4.15781,2.56235-9.52531,3.46375a27.883,27.883,0,0,1-7.79343,0c-10.63-1.581-18.74-11.18525-26.84406-20.7825a101.87526,101.87526,0,0,1-6.9275-9.52531C845.28615,1457.40442,843.26613,1454.28083,844.13058,1453.26029Z" transform="translate(-830.14152 -1380.33333)" style="opacity:0.05"/><path d="M949.77494,1476.6406a3.65442,3.65442,0,0,1,0-4.32968c1.19611-1.32676,3.07693-.20861,6.06157-.86594,4.48692-.98819,6.17678-4.8236,6.9275-4.32969.91445.60162-.48757,7.01936-5.19563,9.52531C955.28874,1477.854,951.33489,1478.62876,949.77494,1476.6406Z" transform="translate(-830.14152 -1380.33333)" style="fill:aqua"/><path d="M949.77494,1476.6406a3.65442,3.65442,0,0,1,0-4.32968c1.19611-1.32676,3.07693-.20861,6.06157-.86594,4.48692-.98819,6.17678-4.8236,6.9275-4.32969.91445.60162-.48757,7.01936-5.19563,9.52531C955.28874,1477.854,951.33489,1478.62876,949.77494,1476.6406Z" transform="translate(-830.14152 -1380.33333)" style="opacity:0.05"/><path d="M832.00746,1442.86905c1.57062-1.06668,6.55843,2.71213,9.52531,6.92749.55739.792.69237,1.10045,3.46375,6.9275,3.50281,7.365,3.89857,8.15754,3.46375,8.65938-1.19553,1.37977-7.40481-.88333-11.25718-5.19563-2.5818-2.89-3.41465-6.05167-4.32969-9.52531C831.88976,1446.92834,830.84248,1443.6602,832.00746,1442.86905Z" transform="translate(-830.14152 -1380.33333)" style="fill:aqua"/><path d="M832.00746,1442.86905c1.57062-1.06668,6.55843,2.71213,9.52531,6.92749.55739.792.69237,1.10045,3.46375,6.9275,3.50281,7.365,3.89857,8.15754,3.46375,8.65938-1.19553,1.37977-7.40481-.88333-11.25718-5.19563-2.5818-2.89-3.41465-6.05167-4.32969-9.52531C831.88976,1446.92834,830.84248,1443.6602,832.00746,1442.86905Z" transform="translate(-830.14152 -1380.33333)" style="opacity:0.05"/><path d="M950.64088,1412.56124c-1.82553-.67049-4.20532,1.49335-5.19562,3.46375-1.78325,3.5481.32113,7.85194.86594,7.79343.52625-.0565-.55813-4.15913,1.73187-6.06156,1.6481-1.36915,3.72754-.50511,4.32969-1.73187C952.89441,1414.96228,951.9566,1413.04447,950.64088,1412.56124Z" transform="translate(-830.14152 -1380.33333)" style="fill:aqua"/><path d="M950.64088,1412.56124c-1.82553-.67049-4.20532,1.49335-5.19562,3.46375-1.78325,3.5481.32113,7.85194.86594,7.79343.52625-.0565-.55813-4.15913,1.73187-6.06156,1.6481-1.36915,3.72754-.50511,4.32969-1.73187C952.89441,1414.96228,951.9566,1413.04447,950.64088,1412.56124Z" transform="translate(-830.14152 -1380.33333)" style="opacity:0.05"/><path d="M930.72432,1395.24249c-1.00689.73851-1.04738,3.01244,0,4.32969,1.62543,2.04423,5.4981,1.31539,6.06156,0a1.26327,1.26327,0,0,0,0-.86594C936.135,1396.27312,932.22708,1394.14025,930.72432,1395.24249Z" transform="translate(-830.14152 -1380.33333)" style="fill:aqua"/><path d="M930.72432,1395.24249c-1.00689.73851-1.04738,3.01244,0,4.32969,1.62543,2.04423,5.4981,1.31539,6.06156,0a1.26327,1.26327,0,0,0,0-.86594C936.135,1396.27312,932.22708,1394.14025,930.72432,1395.24249Z" transform="translate(-830.14152 -1380.33333)" style="opacity:0.05"/><path d="M961.89807,1439.4053c-.32283.2807,1.31592,1.95829,3.07015,6.06156,1.43638,3.35979,1.62321,5.24187,2.01913,5.19562.50168-.05861,1.08824-3.18437,0-6.06156C965.67323,1441.12644,962.30805,1439.04881,961.89807,1439.4053Z" transform="translate(-830.14152 -1380.33333)" style="fill:aqua"/><path d="M961.89807,1439.4053c-.32283.2807,1.31592,1.95829,3.07015,6.06156,1.43638,3.35979,1.62321,5.24187,2.01913,5.19562.50168-.05861,1.08824-3.18437,0-6.06156C965.67323,1441.12644,962.30805,1439.04881,961.89807,1439.4053Z" transform="translate(-830.14152 -1380.33333)" style="opacity:0.05"/><path d="M834.60527,1416.89092c2.57963-1.35424,6.22033,1.65133,7.79344,3.46375,3.0303,3.49129,3.38838,8.31562,2.59781,8.65938-.88861.3864-2.514-5.1988-6.9275-6.06156-2.58169-.50469-4.20987.97941-5.19562,0C831.67893,1421.76568,832.47965,1418.00685,834.60527,1416.89092Z" transform="translate(-830.14152 -1380.33333)" style="fill:aqua"/><path d="M834.60527,1416.89092c2.57963-1.35424,6.22033,1.65133,7.79344,3.46375,3.0303,3.49129,3.38838,8.31562,2.59781,8.65938-.88861.3864-2.514-5.1988-6.9275-6.06156-2.58169-.50469-4.20987.97941-5.19562,0C831.67893,1421.76568,832.47965,1418.00685,834.60527,1416.89092Z" transform="translate(-830.14152 -1380.33333)" style="opacity:0.05"/><path d="M868.37683,1451.52842c1.44029-.76953,3.93276,8.16383,12.12312,10.39125,3.183.86562,6.76588.59739,11.25719,3.46375,1.50456.96017,2.68935,1.73515,2.59781,2.59781-.25935,2.44359-10.82168,5.92848-18.18468,1.73187C867.89127,1464.99442,866.56393,1452.49705,868.37683,1451.52842Z" transform="translate(-830.14152 -1380.33333)" style="fill:aqua"/><path d="M868.37683,1451.52842c1.44029-.76953,3.93276,8.16383,12.12312,10.39125,3.183.86562,6.76588.59739,11.25719,3.46375,1.50456.96017,2.68935,1.73515,2.59781,2.59781-.25935,2.44359-10.82168,5.92848-18.18468,1.73187C867.89127,1464.99442,866.56393,1452.49705,868.37683,1451.52842Z" transform="translate(-830.14152 -1380.33333)" style="opacity:0.05"/><path d="M924.66276,1456.724c.13171-.93031,1.51042-1.09357,5.19563-2.59781,5.06122-2.0659,5.96986-3.19024,6.92749-2.59781,1.56545.96842,1.62464,5.51147-.86593,7.79344-2.446,2.24105-6.07129,1.12866-6.9275.86593C927.06951,1459.59775,924.473,1458.06428,924.66276,1456.724Z" transform="translate(-830.14152 -1380.33333)" style="fill:aqua"/><path d="M924.66276,1456.724c.13171-.93031,1.51042-1.09357,5.19563-2.59781,5.06122-2.0659,5.96986-3.19024,6.92749-2.59781,1.56545.96842,1.62464,5.51147-.86593,7.79344-2.446,2.24105-6.07129,1.12866-6.9275.86593C927.06951,1459.59775,924.473,1458.06428,924.66276,1456.724Z" transform="translate(-830.14152 -1380.33333)" style="opacity:0.05"/><path d="M871.07683,1386.35859c5.8255-.22047,9.31307-5.12282,16.74591-5.02378,5.00007.06664,4.91452,2.30492,10.88485,2.51189,6.22739.21587,7.10209-2.19218,11.72214-1.67459,4.5576.51053,6.25529,3.13955,13.39673,8.373,7.71514,5.65379,7.77759,4.08325,13.39673,8.373,4.43,3.38189,14.512,11.07863,18.42051,23.44428,1.68011,5.31548.819,7.063,3.34918,11.72214,3.36932,6.20449,6.8386,6.68191,8.373,11.72214.84241,2.7671.01482,6.348-1.67459,13.39673-2.23582,9.32851-3.42063,14.0478-6.69837,16.74592-4.0395,3.32516-8.99806-.04589-11.72214,3.34918-1.67571,2.08844-.37643,3.67656-1.67459,6.69837-1.81737,4.23053-6.42843,5.92423-13.39673,8.373-8.12265,2.85439-12.18392,4.28164-16.74592,3.34919-7.31366-1.49481-8.42518-6.63469-15.07132-6.69837-4.515-.04323-5.36924,2.31565-10.04755,3.34918-10.57515,2.3363-21.10492-6.42618-23.44428-8.373-10.14322-8.44073-8.75757-16.11969-18.42051-20.0951-4.78665-1.96926-6.66535-.71812-10.04755-3.34919-4.99832-3.88833-5.81712-10.45015-6.69836-18.4205a61.63307,61.63307,0,0,1,1.67459-25.11888c1.66447-5.80853,4.13507-14.43,11.72214-21.76969a40.06793,40.06793,0,0,1,17.82606-9.92878c.28915-.05979.59424-.11877.59445-.11877A46.75784,46.75784,0,0,1,871.07683,1386.35859Z" transform="translate(-830.14152 -1380.33333)" style="fill:none;stroke:#1b1464;stroke-miterlimit:10;stroke-width:2px"/><path d="M875.26331,1385.52129a41.604,41.604,0,0,0,8.37295,3.34919c3.37331.93132,6.25233,1.25614,10.04755,3.34918,3.69118,2.03569,5.11076,3.81842,8.373,6.69837,10.85112,9.57953,16.85221,9.01891,18.42051,15.07132,1.01228,3.90663-1.30255,4.85564,0,8.373,2.043,5.51662,8.46229,5.13988,15.07132,10.04755,7.02237,5.2146,9.45944,12.90408,11.72214,20.0951a53.96559,53.96559,0,0,1,1.6746,25.11887" transform="translate(-830.14152 -1380.33333)" style="fill:none;stroke:#1b1464;stroke-miterlimit:10;stroke-width:2px"/><path d="M860.192,1395.56884a34.52284,34.52284,0,0,0-13.39673,10.04755" transform="translate(-830.14152 -1380.33333)" style="fill:none;stroke:#1b1464;stroke-miterlimit:10;stroke-width:2px"/><path d="M832.00746,1424.68436a7.99273,7.99273,0,0,1,11.43863,11.07469" transform="translate(-830.14152 -1380.33333)" style="fill:none;stroke:#1b1464;stroke-miterlimit:10;stroke-width:2px"/><path d="M841.77148,1449.15577a50.92583,50.92583,0,0,0,10.04755,18.42051" transform="translate(-830.14152 -1380.33333)" style="fill:none;stroke:#1b1464;stroke-miterlimit:10;stroke-width:2px"/><path d="M860.192,1407.291a56.65376,56.65376,0,0,0-5.02377,13.39674,72.89671,72.89671,0,0,0-1.67459,15.07132c-.09087,2.769-.05356,5.07794,0,6.69837" transform="translate(-830.14152 -1380.33333)" style="fill:none;stroke:#1b1464;stroke-miterlimit:10;stroke-width:2px"/><path d="M848.46984,1440.78281c2.12258,2.01679,4.8167,2.667,6.69837,1.6746a4.1927,4.1927,0,0,0,1.67459-1.6746" transform="translate(-830.14152 -1380.33333)" style="fill:none;stroke:#1b1464;stroke-miterlimit:10;stroke-width:2px"/><path d="M844.28336,1412.31476a54.58435,54.58435,0,0,1,10.04755,11.72214" transform="translate(-830.14152 -1380.33333)" style="fill:none;stroke:#1b1464;stroke-miterlimit:10;stroke-width:2px"/><path d="M870.23953,1402.26721a8.8438,8.8438,0,0,0-3.34918,5.02377c-.42734,1.91734-.50972,5.64511,1.67459,6.69837,1.84048.88748,4.93782-.29375,6.69837-3.34918" transform="translate(-830.14152 -1380.33333)" style="fill:none;stroke:#1b1464;stroke-miterlimit:10;stroke-width:2px"/><path d="M863.54117,1435.759a24.44007,24.44007,0,0,1,3.34918-8.373c1.47712-2.29152,2.5449-3.03121,3.34918-5.02377a12.48338,12.48338,0,0,0,0-8.373" transform="translate(-830.14152 -1380.33333)" style="fill:none;stroke:#1b1464;stroke-miterlimit:10;stroke-width:2px"/><path d="M881.96167,1399.33929c.35426-.17223,3.85093-1.80644,6.69837,0a5.57642,5.57642,0,0,1,1.67459,1.67459" transform="translate(-830.14152 -1380.33333)" style="fill:none;stroke:#1b1464;stroke-miterlimit:10;stroke-width:2px"/><path d="M866.89035,1438.104a9.54662,9.54662,0,0,0,10.04755,3.34919" transform="translate(-830.14152 -1380.33333)" style="fill:none;stroke:#1b1464;stroke-miterlimit:10;stroke-width:2px"/><path d="M886.98545,1398.918q2.56157,7.36792,0,11.72214c-2.69167,4.57477-7.92089,3.75556-10.04755,8.373-1.7952,3.89784,1.05112,6.39225,0,11.72214-.91232,4.62629-4.08,7.93541-6.69837,10.04755" transform="translate(-830.14152 -1380.33333)" style="fill:none;stroke:#1b1464;stroke-miterlimit:10;stroke-width:2px"/><path d="M895.35841,1417.33853c.24775-.283,1.68859-1.88228,3.34918-1.67459,1.98163.24786,3.90653,3.02242,3.34918,6.69837" transform="translate(-830.14152 -1380.33333)" style="fill:none;stroke:#1b1464;stroke-miterlimit:10;stroke-width:2px"/><path d="M890.33463,1428.22338a54.58535,54.58535,0,0,0,16.74592-10.04755" transform="translate(-830.14152 -1380.33333)" style="fill:none;stroke:#1b1464;stroke-miterlimit:10;stroke-width:2px"/><path d="M855.16821,1450.83036a15.43893,15.43893,0,0,0,13.39673,3.34919" transform="translate(-830.14152 -1380.33333)" style="fill:none;stroke:#1b1464;stroke-miterlimit:10;stroke-width:2px"/><path d="M863.54117,1467.57628a8.99183,8.99183,0,0,0,3.34918,6.69837,8.52365,8.52365,0,0,0,5.02377,1.67459" transform="translate(-830.14152 -1380.33333)" style="fill:none;stroke:#1b1464;stroke-miterlimit:10;stroke-width:2px"/><path d="M868.56494,1444.132a28.54108,28.54108,0,0,0,0,13.39673c.67427,2.72765,1.63085,6.59718,5.02378,10.04755a15.31508,15.31508,0,0,0,10.04754,5.02377c6.64032.37726,11.07005-4.31066,11.72215-5.02377" transform="translate(-830.14152 -1380.33333)" style="fill:none;stroke:#1b1464;stroke-miterlimit:10;stroke-width:2px"/><path d="M892.00922,1482.6476a16.05013,16.05013,0,0,1-10.04755,0,14.71073,14.71073,0,0,1-3.34918-1.67459" transform="translate(-830.14152 -1380.33333)" style="fill:none;stroke:#1b1464;stroke-miterlimit:10;stroke-width:2px"/><path d="M885.31086,1472.60005v10.04755" transform="translate(-830.14152 -1380.33333)" style="fill:none;stroke:#1b1464;stroke-miterlimit:10;stroke-width:2px"/><path d="M888.66,1464.2271a7.17588,7.17588,0,0,1,5.02377,1.67459,7.5655,7.5655,0,0,1,1.6746,8.373" transform="translate(-830.14152 -1380.33333)" style="fill:none;stroke:#1b1464;stroke-miterlimit:10;stroke-width:2px"/><path d="M900.38218,1440.78281c-4.95693-2.08445-10.407.62726-11.72214,5.02378a8.62581,8.62581,0,0,0,5.02377,10.04755" transform="translate(-830.14152 -1380.33333)" style="fill:none;stroke:#1b1464;stroke-miterlimit:10;stroke-width:2px"/><path d="M883.63626,1459.20332a16.35784,16.35784,0,0,1,10.04755-3.34918,16.07175,16.07175,0,0,1,6.69837,1.67459c2.58108,1.20014,8.21382,3.81934,8.373,8.373.11488,3.28694-2.65631,6.60719-6.69837,8.373" transform="translate(-830.14152 -1380.33333)" style="fill:none;stroke:#1b1464;stroke-miterlimit:10;stroke-width:2px"/><path d="M908.75514,1440.78281a11.98826,11.98826,0,0,0,8.373,16.74592" transform="translate(-830.14152 -1380.33333)" style="fill:none;stroke:#1b1464;stroke-miterlimit:10;stroke-width:2px"/><path d="M910.42973,1452.505l-6.69837,6.69836" transform="translate(-830.14152 -1380.33333)" style="fill:none;stroke:#1b1464;stroke-miterlimit:10;stroke-width:2px"/><path d="M915.4535,1429.06067q4.18653,5.02378,8.373,10.04755" transform="translate(-830.14152 -1380.33333)" style="fill:none;stroke:#1b1464;stroke-miterlimit:10;stroke-width:2px"/><path d="M912.10432,1437.43363l8.373,8.373" transform="translate(-830.14152 -1380.33333)" style="fill:none;stroke:#1b1464;stroke-miterlimit:10;stroke-width:2px"/><path d="M927.17565,1430.73526a8.12162,8.12162,0,0,1,0,3.34919c-.72712,3.32005-3.32026,4.27356-5.02378,6.69836-2.66653,3.79564-2.029,9.59651,0,13.39674,1.71057,3.20363,5.80618,7.60036,10.04755,6.69836a5.92058,5.92058,0,0,0,3.34918-10.04755" transform="translate(-830.14152 -1380.33333)" style="fill:none;stroke:#1b1464;stroke-miterlimit:10;stroke-width:2px"/><path d="M933.874,1472.60005q-.83724-5.861-1.67459-11.72214" transform="translate(-830.14152 -1380.33333)" style="fill:none;stroke:#1b1464;stroke-miterlimit:10;stroke-width:2px"/><path d="M937.22319,1480.973c-3.3039,3.73543-6.2422,4.78675-8.373,5.02378-3.35992.37367-5.2007-1.22314-8.373,0-2.7853,1.07391-2.94689,2.91428-5.02378,3.34918-1.644.34424-4.27795-.23621-8.37295-5.02378" transform="translate(-830.14152 -1380.33333)" style="fill:none;stroke:#1b1464;stroke-miterlimit:10;stroke-width:2px"/><path d="M917.1281,1472.60005a15.439,15.439,0,0,0,3.34918,13.39674" transform="translate(-830.14152 -1380.33333)" style="fill:none;stroke:#1b1464;stroke-miterlimit:10;stroke-width:2px"/><path d="M925.50105,1477.62383l6.69837,6.69836" transform="translate(-830.14152 -1380.33333)" style="fill:none;stroke:#1b1464;stroke-miterlimit:10;stroke-width:2px"/><path d="M903.73136,1387.19588a17.30283,17.30283,0,0,1,5.02378,3.34919c.88656.8516,1.09782,1.2401,1.67459,1.67459,1.27567.96107,3.62985,1.61255,8.373,0" transform="translate(-830.14152 -1380.33333)" style="fill:none;stroke:#1b1464;stroke-miterlimit:10;stroke-width:2px"/><path d="M898.70759,1388.87048c.13778.40065,1.46976,4.0814,5.02377,5.02377a6.73759,6.73759,0,0,0,3.34919,0" transform="translate(-830.14152 -1380.33333)" style="fill:none;stroke:#1b1464;stroke-miterlimit:10;stroke-width:2px"/><path d="M900.38218,1392.21966q4.18653-.83724,8.373-1.67459" transform="translate(-830.14152 -1380.33333)" style="fill:none;stroke:#1b1464;stroke-miterlimit:10;stroke-width:2px"/><path d="M917.1281,1400.59262c3.2532-1.586,6.1402-1.13319,6.69836,0,.52791,1.07176-.72527,3.36461-3.34918,5.02377" transform="translate(-830.14152 -1380.33333)" style="fill:none;stroke:#1b1464;stroke-miterlimit:10;stroke-width:2px"/><path d="M938.89779,1400.59262H923.82646" transform="translate(-830.14152 -1380.33333)" style="fill:none;stroke:#1b1464;stroke-miterlimit:10;stroke-width:2px"/><path d="M923.82646,1412.31476a5.415,5.415,0,0,1,6.69837,0,5.28937,5.28937,0,0,1,1.67459,5.02377" transform="translate(-830.14152 -1380.33333)" style="fill:none;stroke:#1b1464;stroke-miterlimit:10;stroke-width:2px"/><path d="M933.874,1405.61639a7.72811,7.72811,0,0,1,3.34918,5.02378,6.23855,6.23855,0,0,1,0,1.67459" transform="translate(-830.14152 -1380.33333)" style="fill:none;stroke:#1b1464;stroke-miterlimit:10;stroke-width:2px"/><path d="M937.22319,1408.96557q-3.34913,1.67465-6.69836,3.34919" transform="translate(-830.14152 -1380.33333)" style="fill:none;stroke:#1b1464;stroke-miterlimit:10;stroke-width:2px"/><path d="M946.76736,1424.0369a5.055,5.055,0,0,1,0-5.02378,5.29159,5.29159,0,0,1,6.69837-1.67459" transform="translate(-830.14152 -1380.33333)" style="fill:none;stroke:#1b1464;stroke-miterlimit:10;stroke-width:2px"/><path d="M940.57238,1432.40986a10.65073,10.65073,0,0,0,5.02377,5.02377c2.45016,1.04887,4.30617.4488,5.02378,1.67459.99837,1.70536-2.15692,3.61278-1.67459,6.69837.393,2.51434,2.684,2.50044,5.02377,6.69837a10.05892,10.05892,0,0,1,1.67459,5.02377c.00705,3.45742-2.49512,5.92454-3.34918,6.69837" transform="translate(-830.14152 -1380.33333)" style="fill:none;stroke:#1b1464;stroke-miterlimit:10;stroke-width:2px"/><path d="M956.481,1439.10822a28.95466,28.95466,0,0,1,5.02377,6.69837q.46071.85.8373,1.67459" transform="translate(-830.14152 -1380.33333)" style="fill:none;stroke:#1b1464;stroke-miterlimit:10;stroke-width:2px"/><path d="M958.99288,1442.45741l-5.02377,10.04755" transform="translate(-830.14152 -1380.33333)" style="fill:none;stroke:#1b1464;stroke-miterlimit:10;stroke-width:2px"/><path d="M945.59615,1430.73526a6.41005,6.41005,0,0,1,3.34919,1.6746c2.62145,2.555,1.73407,6.45511,1.67459,6.69836" transform="translate(-830.14152 -1380.33333)" style="fill:none;stroke:#1b1464;stroke-miterlimit:10;stroke-width:2px"/><path d="M951.45722,1470.92546a10.70568,10.70568,0,0,0,5.02378,0c5.89286-1.46823,8.14779-7.71688,8.373-8.373" transform="translate(-830.14152 -1380.33333)" style="fill:none;stroke:#1b1464;stroke-miterlimit:10;stroke-width:2px"/></svg>