<svg id="70d34613-23c3-4839-ad40-26824772fcc0" data-name="desc-bg" xmlns="http://www.w3.org/2000/svg" xmlns:xlink="http://www.w3.org/1999/xlink" viewBox="0 0 3166 1786.94023"><defs><linearGradient id="dad7ab88-1a1d-4d82-a621-70816adad1d6" x1="-684" y1="1433" x2="2482" y2="1433" gradientUnits="userSpaceOnUse"><stop offset="0" stop-color="#89a2f9" stop-opacity="0"/><stop offset="1" stop-color="#89a2f9"/></linearGradient></defs><title>desc-bg</title><path d="M990.20564,882.9458C798.312,881.25488,784.40343,677.60041,569.34,636.58877c-206.18391-39.31836-315.108,138.71931-557.08325,121.17561-259.72426-18.83053-315.44843-252.19412-453.74572-214.023-248.653,68.63018-243.11012,836.70833-242.37349,938.782,1.71918,238.22852,5.08293,704.34729,201.03848,781,148.08188,57.92578,240.80026-172.96753,503.53562-161,257.28121,11.71912,300.89058,234.64478,530.77915,214,196.36953-17.63464,237.91371-186.88025,451.86686-181,127.37115,3.50061,129.2507,63.93909,287.46623,90,222.8422,36.70606,286.45249-72.09936,496.9596-69,292.75489,4.3103,372.683,217.89966,511.99051,160,190.39945-79.13489,184.37984-536.69983,181.3104-770-1.0775-81.89734-11.42823-868.66136-265.85929-931.42855-142.70676-35.2052-221.68947,193.83865-476.29209,185.7319-154.96009-4.93406-190.0591-91.59188-338.19557-87.12622C1196.19288,719.86662,1162.92744,884.46774,990.20564,882.9458Z" transform="translate(684 -539.52989)" style="opacity:0.7000000000000001;fill:url(#dad7ab88-1a1d-4d82-a621-70816adad1d6)"/></svg>