<svg id="9619c525-e41b-458c-81eb-942b12afaccd" data-name="drone-rotate" xmlns="http://www.w3.org/2000/svg" xmlns:xlink="http://www.w3.org/1999/xlink" viewBox="0 0 1438.22346 1421.4756"><defs><linearGradient id="75408623-b4df-4a7e-bac8-6ab995154c8b" x1="1040.08244" y1="1312.7601" x2="2113.22969" y2="1312.7601" gradientTransform="matrix(0.76253, 0.78962, -0.71934, 0.69466, 503.33398, -609.56338)" gradientUnits="userSpaceOnUse"><stop offset="0" stop-color="#fbb03b"/><stop offset="0.04174" stop-color="#fbb03b" stop-opacity="0.90733"/><stop offset="0.14634" stop-color="#fbb03b" stop-opacity="0.6971"/><stop offset="0.25526" stop-color="#fbb03b" stop-opacity="0.51064"/><stop offset="0.36622" stop-color="#fbb03b" stop-opacity="0.35344"/><stop offset="0.47982" stop-color="#fbb03b" stop-opacity="0.22527"/><stop offset="0.59685" stop-color="#fbb03b" stop-opacity="0.12597"/><stop offset="0.71869" stop-color="#fbb03b" stop-opacity="0.05544"/><stop offset="0.84851" stop-color="#fbb03b" stop-opacity="0.01352"/><stop offset="1" stop-color="#fbb03b" stop-opacity="0"/></linearGradient></defs><title>drone-rotate</title><path d="M426.09792,746.5244l-40.03621,24.7609L246.63324,898.97907,229.891,926.2682l29.05225,37.28226,149.17524,124.24471,19.96874-9.55245L581.70144,907.65647A564.27239,564.27239,0,0,0,426.09792,746.5244Z" transform="translate(-180.62676 -746.5244)" style="fill:#89a2f9"/><polygon points="16.203 250.595 36.348 289.057 60.689 335.53 164.86 404.534 202.343 404.481 216.011 391.283 203.902 355.711 178.559 300.515 65.118 203.359 16.545 190.488 0 206.465 16.203 250.595" style="fill:#89a2f9"/><path d="M579.56835,889.61585c25.2081,26.57726,18.79635,69.97971-.83288,96.02124-26.33564,34.93892-83.73015,48.26805-114.28535,19.41065-29.90105-28.23961-21.62026-85.0925,11.65459-113.57739C504.07051,867.53025,552.57645,861.15791,579.56835,889.61585Z" transform="translate(-180.62676 -746.5244)" style="fill:#89a2f9"/><path d="M564.21852,912.02807c15.38536,17.24424,7.23228,46.42322-5.66313,62.46554-16.7038,20.78015-50.96137,31.4573-69.11054,16.69341-19.43629-15.81091-15.43655-56.763,7.23589-76.49582C514.80273,898.91885,548.0577,893.91469,564.21852,912.02807Z" transform="translate(-180.62676 -746.5244)" style="fill:#fbb03b;stroke:#000;stroke-miterlimit:10;stroke-opacity:0.2;stroke-width:6px"/><polygon points="306.865 119.919 295.671 130.729 284.55 137.413 282.523 135.314 292.993 126.555 306.865 119.919" style="fill:#89a2f9"/><polygon points="306.865 119.919 295.671 130.729 284.55 137.413 282.523 135.314 292.993 126.555 306.865 119.919" style="opacity:0.5"/><polygon points="302.136 115.022 290.942 125.831 279.82 132.515 277.794 130.416 288.264 121.658 302.136 115.022" style="fill:#89a2f9"/><polygon points="302.136 115.022 290.942 125.831 279.82 132.515 277.794 130.416 288.264 121.658 302.136 115.022" style="opacity:0.5"/><polygon points="297.407 110.124 286.213 120.934 275.091 127.618 273.064 125.519 283.535 116.76 297.407 110.124" style="fill:#89a2f9"/><polygon points="297.407 110.124 286.213 120.934 275.091 127.618 273.064 125.519 283.535 116.76 297.407 110.124" style="opacity:0.5"/><polygon points="292.677 105.227 281.484 116.037 270.362 122.721 268.335 120.622 278.805 111.863 292.677 105.227" style="fill:#89a2f9"/><polygon points="292.677 105.227 281.484 116.037 270.362 122.721 268.335 120.622 278.805 111.863 292.677 105.227" style="opacity:0.5"/><polygon points="287.948 100.33 276.755 111.14 265.633 117.824 263.606 115.725 274.076 106.966 287.948 100.33" style="fill:#89a2f9"/><polygon points="287.948 100.33 276.755 111.14 265.633 117.824 263.606 115.725 274.076 106.966 287.948 100.33" style="opacity:0.5"/><polygon points="283.219 95.433 272.025 106.242 260.904 112.926 258.877 110.827 269.347 102.069 283.219 95.433" style="fill:#89a2f9"/><polygon points="283.219 95.433 272.025 106.242 260.904 112.926 258.877 110.827 269.347 102.069 283.219 95.433" style="opacity:0.5"/><polygon points="250.945 171.217 262.138 160.407 269.206 149.525 267.18 147.427 258.061 157.585 250.945 171.217" style="fill:#89a2f9"/><polygon points="250.945 171.217 262.138 160.407 269.206 149.525 267.18 147.427 258.061 157.585 250.945 171.217" style="opacity:0.5"/><polygon points="246.215 166.32 257.409 155.51 264.477 144.628 262.45 142.529 253.331 152.687 246.215 166.32" style="fill:#89a2f9"/><polygon points="246.215 166.32 257.409 155.51 264.477 144.628 262.45 142.529 253.331 152.687 246.215 166.32" style="opacity:0.5"/><polygon points="241.486 161.422 252.68 150.613 259.748 139.731 257.721 137.632 248.602 147.79 241.486 161.422" style="fill:#89a2f9"/><polygon points="241.486 161.422 252.68 150.613 259.748 139.731 257.721 137.632 248.602 147.79 241.486 161.422" style="opacity:0.5"/><polygon points="236.757 156.525 247.951 145.715 255.019 134.834 252.992 132.735 243.873 142.893 236.757 156.525" style="fill:#89a2f9"/><polygon points="236.757 156.525 247.951 145.715 255.019 134.834 252.992 132.735 243.873 142.893 236.757 156.525" style="opacity:0.5"/><polygon points="232.028 151.628 243.221 140.818 250.289 129.936 248.263 127.838 239.144 137.996 232.028 151.628" style="fill:#89a2f9"/><polygon points="232.028 151.628 243.221 140.818 250.289 129.936 248.263 127.838 239.144 137.996 232.028 151.628" style="opacity:0.5"/><polygon points="227.298 146.73 238.492 135.921 245.56 125.039 243.533 122.94 234.414 133.098 227.298 146.73" style="fill:#89a2f9"/><polygon points="227.298 146.73 238.492 135.921 245.56 125.039 243.533 122.94 234.414 133.098 227.298 146.73" style="opacity:0.5"/><path d="M426.09792,746.5244A549.83457,549.83457,0,0,1,560.00218,876.09451a81.60145,81.60145,0,0,0-49.12764-2.91339q-19.62981-28.64532-39.29937-57.97034Q448.40989,780.66782,426.09792,746.5244Z" transform="translate(-180.62676 -746.5244)" style="opacity:0.1"/><path d="M245.74472,949.883q-24.28657-6.43521-48.57315-12.87048l36.58066,76.8119,53.74012,15.55631,81.3173,58.68985q7.475,8.84346,14.95,17.687,6.31351,16.25878,12.62711,32.51758-5.92918-18.02014-11.85841-36.04024-12.60435-27.44778-25.20875-54.89553Q302.53212,998.61119,245.74472,949.883Z" transform="translate(-180.62676 -746.5244)" style="fill-opacity:0.1"/><path d="M246.21209,1028.81043q-4.24264,4.94971-8.48528,9.8995,7.77816,17.67769,15.55636,35.35533,48.43677,32.88046,96.87364,65.76091h26.87006l10.6066-10.60661q-10.6066-16.26349-21.21321-32.5269L287.93139,1039.417Z" transform="translate(-180.62676 -746.5244)" style="fill-opacity:0.1"/><path d="M507.30252,875.24041A99.15317,99.15317,0,0,0,441.12328,939.149l-94.16174-97.50728a116.65625,116.65625,0,0,1,66.17924-63.90859Z" transform="translate(-180.62676 -746.5244)" style="opacity:0.1"/><path d="M423.94349,788.91966q-75.34471,67.89406-150.68944,135.78805l-19.84341,31.674q-11.66353-15.14981-23.327-30.29961,9.11772-14.36558,18.23553-28.73117,74.26632-68.24274,148.53262-136.48554Z" transform="translate(-180.62676 -746.5244)" style="fill:#89a2f9"/><path d="M423.94349,788.91966q-75.34471,67.89406-150.68944,135.78805l-19.84341,31.674q-11.66353-15.14981-23.327-30.29961,9.11772-14.36558,18.23553-28.73117,74.26632-68.24274,148.53262-136.48554Z" transform="translate(-180.62676 -746.5244)" style="opacity:0.5"/><path d="M424.95227,974.22747l-10.79009,10.41988q-26.977,5.894-53.95406,11.7881l-43.19224-37.52906-1.58676,9.8733,70.358,61.34132,64.49734-8.068,10.7901-10.41987Z" transform="translate(-180.62676 -746.5244)" style="opacity:0.1"/><path d="M424.95227,974.22747l-10.79009,10.41988-53.95406,11.7881-43.19224-37.52906q7.20391-27.80922,14.40788-55.61846l12.94812-12.50386Z" transform="translate(-180.62676 -746.5244)" style="fill:#f2f2f2"/><path d="M565,931q526.92509,303.46839,1053.85022,606.93665L494,2168l-.37079-1181.05017Z" transform="translate(-180.62676 -746.5244)" style="fill:url(#75408623-b4df-4a7e-bac8-6ab995154c8b)"/></svg>