<svg id="8ba9526f-676c-4741-ac39-ac833455c67a" data-name="Layer 1" xmlns="http://www.w3.org/2000/svg" viewBox="0 0 151.1785 134.0146"><title>endurance</title><path d="M875,1419.33333c2.27338.86246-4.65393,12.68637,1,25,3.22028,7.01346,10.19318,14.46823,19,16,11.75061,2.0438,21.32141-7.28128,23-5,.54047.7345-.20148,2.04123-9,14-5.541,7.53122-6.64868,8.84351-9,10-4.39551,2.16193-8.72668,1.187-14,0-5.18555-1.16723-12.36273-2.7828-18-9-6.6463-7.33-6.89856-16.36544-7-20C860.5152,1432.96868,872.3844,1418.34105,875,1419.33333Z" transform="translate(-824.45698 -1373.20552)" style="fill:aqua"/><path d="M875,1419.33333c2.27338.86246-4.65393,12.68637,1,25,3.22028,7.01346,10.19318,14.46823,19,16,11.75061,2.0438,21.32141-7.28128,23-5,.54047.7345-.20148,2.04123-9,14-5.541,7.53122-6.64868,8.84351-9,10-4.39551,2.16193-8.72668,1.187-14,0-5.18555-1.16723-12.36273-2.7828-18-9-6.6463-7.33-6.89856-16.36544-7-20C860.5152,1432.96868,872.3844,1418.34105,875,1419.33333Z" transform="translate(-824.45698 -1373.20552)" style="opacity:0.05"/><path d="M852,1413.33333c1.21289.29676-2.66486,10.45786-1,27,1.483,14.73481,6.24731,23.4419,5,24-1.32733.59391-8.82288-8.326-11-20C841.96393,1428.05346,850.49194,1412.96435,852,1413.33333Z" transform="translate(-824.45698 -1373.20552)" style="fill:aqua"/><path d="M852,1413.33333c1.21289.29676-2.66486,10.45786-1,27,1.483,14.73481,6.24731,23.4419,5,24-1.32733.59391-8.82288-8.326-11-20C841.96393,1428.05346,850.49194,1412.96435,852,1413.33333Z" transform="translate(-824.45698 -1373.20552)" style="opacity:0.05"/><path d="M900,1480.33333c8.423-10.83224,49.81628-65.02041,36-83-.18323-.2384-4.54944-5.754-11-6-9.39746-.35836-19.20068,10.62061-25,28-4.45856-2.69162-11.07147-5.517-18-4-16.47876,3.60807-29.372,30.60431-19,49C869.56451,1475.97609,884.40314,1482.31966,900,1480.33333Z" transform="translate(-824.45698 -1373.20552)" style="fill:none;stroke:#1b1464;stroke-miterlimit:10;stroke-width:2px"/><path d="M899.22839,1383.83333c-11.97162,6.89142-16.34106,19.01032-17.5932,23-3.58459-1.68518-10.82153-4.36535-18.57055-2-13.93756,4.2544-20.10212,21.95319-19.54792,35a40.5331,40.5331,0,0,0,8.79657,23q8.30787,4.5,16.61579,9a36.41638,36.41638,0,0,1-8.79663-22c-.53986-13.51037,6.98553-22.62329,9.774-26,3.08734-3.73858,6.21979-7.53186,11.72876-9,8.54023-2.27594,15.99469,2.84723,17.5932,4a56.64359,56.64359,0,0,1,7.81916-15c3.9505-5.39053,8.07031-10.99359,14.45245-12,4.956-.78149,8.70215,1.61707,9,1,.283-.58639-2.89233-3.18295-20.52026-13A34.99325,34.99325,0,0,0,899.22839,1383.83333Z" transform="translate(-824.45698 -1373.20552)" style="fill:none;stroke:#1b1464;stroke-miterlimit:10;stroke-width:2px"/><polyline points="0.543 122.128 3.636 120.128 6.729 125.128 6.729 104.128 9.048 117.128 12.141 114.128 15.234 126.128 15.234 86.128 19.1 108.128 22.966 106.128 24.512 111.128 26.058 95.128 29.151 101.128 39.203 94.128 43.069 96.128 44.445 80.097 46.162 90.128 49.254 88.128 52.347 97.128 54.808 60.23 56.213 81.128 60.079 78.128 62.399 83.128 63.945 68.128 67.038 73.128 77.863 66.128 80.955 69.128 80.955 50.128 83.275 61.128 87.141 58.128 90.234 69.128 90.234 30.128 93.327 53.128 97.966 50.128 100.285 54.128 100.285 37.128 104.151 46.128 115.749 37.128 118.069 40.128 118.069 20.128 121.162 33.128 125.028 31.128 127.347 40.128 127.347 0.128 130.44 24.128 135.079 21.128 136.625 27.128 138.172 11.128 142.038 18.128 150.543 11.128" style="fill:none;stroke:#1b1464;stroke-miterlimit:10;stroke-width:2px"/></svg>