<svg id="0be926f5-f174-409c-9127-9b46b40e68ee" data-name="hero" xmlns="http://www.w3.org/2000/svg" xmlns:xlink="http://www.w3.org/1999/xlink" viewBox="0 0 2621 1775.67436"><defs><linearGradient id="80c2e16e-2696-40f9-9974-4070005ba4b1" x1="907.7794" y1="750.7369" x2="907.7794" y2="2173.79058" gradientUnits="userSpaceOnUse"><stop offset="0.12021" stop-color="#1346f3"/><stop offset="0.28347" stop-color="#f53cef"/><stop offset="0.45403" stop-color="#fcee21"/></linearGradient><linearGradient id="9b3f1dcc-ecd8-4cb6-8d49-ca14a7f617f0" x1="-356.54893" y1="1295.48633" x2="760.31079" y2="1295.48633" gradientUnits="userSpaceOnUse"><stop offset="0" stop-color="#fff"/><stop offset="1" stop-color="#fff" stop-opacity="0"/></linearGradient><linearGradient id="83cc0b37-3bb2-4f7e-a7ff-3e06ef1ece1a" x1="-369.54855" y1="1377.23929" x2="747.23032" y2="1377.23929" xlink:href="#9b3f1dcc-ecd8-4cb6-8d49-ca14a7f617f0"/><linearGradient id="d7546381-71d5-4499-809f-d4a89f89253f" x1="-371.26431" y1="1473.44807" x2="746.41279" y2="1473.44807" xlink:href="#9b3f1dcc-ecd8-4cb6-8d49-ca14a7f617f0"/><linearGradient id="bc7b8b59-cf80-4e74-b0a0-e2fa8efce7a3" x1="130.46139" y1="1326.29273" x2="678.97717" y2="1326.29273" xlink:href="#9b3f1dcc-ecd8-4cb6-8d49-ca14a7f617f0"/><linearGradient id="d44428bf-86c6-486f-a76b-d9c9800cfdf7" x1="1391.4954" y1="1933.78729" x2="1391.4954" y2="1933.78729" gradientUnits="userSpaceOnUse"><stop offset="0.07786" stop-color="aqua"/><stop offset="0.97923" stop-color="blue"/></linearGradient><linearGradient id="badf3fea-d7b1-424f-9897-eda9fb8b57aa" x1="194.85008" y1="1820.85459" x2="11.78012" y2="1428.25978" gradientUnits="userSpaceOnUse"><stop offset="0.375" stop-color="#ed1e79"/><stop offset="0.41797" stop-color="#ed1e79"/><stop offset="0.66715" stop-color="#ed1e79"/><stop offset="0.7038" stop-color="#ee2e6d"/><stop offset="0.84141" stop-color="#f36442"/><stop offset="0.94426" stop-color="#f68628"/><stop offset="1" stop-color="#f7931e"/></linearGradient><linearGradient id="2ce95871-72df-409d-985a-8ce7bb9c8551" x1="995.7932" y1="1068.19325" x2="995.7932" y2="1788.60574" gradientUnits="userSpaceOnUse"><stop offset="0" stop-color="#f53cef"/><stop offset="0.37398" stop-color="#6143f2"/><stop offset="0.58297" stop-color="#1346f3"/></linearGradient><linearGradient id="94c04c10-f34b-4f76-9633-af5fc75576dc" x1="1034.66792" y1="1803.5728" x2="1034.66792" y2="1507.59665" gradientUnits="userSpaceOnUse"><stop offset="0"/><stop offset="0.0107" stop-color="#00070b"/><stop offset="0.08879" stop-color="#003456"/><stop offset="0.15341" stop-color="#00558d"/><stop offset="0.20137" stop-color="#0069af"/><stop offset="0.22734" stop-color="#0071bc"/></linearGradient><linearGradient id="99012076-582b-4df3-ac31-a3ff03e8beae" x1="1026.05969" y1="1815.58423" x2="1026.05969" y2="1599.92266" gradientUnits="userSpaceOnUse"><stop offset="0"/><stop offset="0.25116" stop-color="#0e0b35"/><stop offset="0.44291" stop-color="#181157"/><stop offset="0.54688" stop-color="#1b1464"/></linearGradient><linearGradient id="7b11cc19-9341-4013-a4df-980e935efae6" x1="322.96631" y1="1793.07034" x2="322.96631" y2="2053.48534" gradientUnits="userSpaceOnUse"><stop offset="0" stop-color="#f15a24"/><stop offset="0.35793" stop-opacity="0.75"/><stop offset="0.44471" stop-color="#0e0b35" stop-opacity="0.88318"/><stop offset="0.51096" stop-color="#181157" stop-opacity="0.96795"/><stop offset="0.54688" stop-color="#1b1464"/></linearGradient><linearGradient id="fa38d78e-a736-458a-a587-0575aa2f5aa5" x1="1651.86073" y1="1768.77179" x2="1651.86073" y2="2174.93073" gradientUnits="userSpaceOnUse"><stop offset="0.03662" stop-color="#f15a24"/><stop offset="0.15539"/><stop offset="0.33518" stop-color="#0e0b35"/><stop offset="0.47245" stop-color="#181157"/><stop offset="0.54688" stop-color="#1b1464"/></linearGradient><linearGradient id="dedee7ce-0f66-462f-98d7-ec326d4058d5" x1="-16.95898" y1="1630.00499" x2="-16.95898" y2="2109.09454" xlink:href="#fa38d78e-a736-458a-a587-0575aa2f5aa5"/><linearGradient id="d480e027-5ce1-4063-b026-d4095e14ce4f" x1="-311.43785" y1="1869.10801" x2="-13.03837" y2="1869.10801" xlink:href="#99012076-582b-4df3-ac31-a3ff03e8beae"/><linearGradient id="e4df76ec-dcb6-4ca1-b4c6-f6458e1b7b06" x1="268.77417" y1="1630.42955" x2="480.09546" y2="1630.42955" gradientUnits="userSpaceOnUse"><stop offset="0"/><stop offset="0.04705" stop-color="#00070b"/><stop offset="0.39053" stop-color="#003456"/><stop offset="0.67481" stop-color="#00558d"/><stop offset="0.88574" stop-color="#0069af"/><stop offset="1" stop-color="#0071bc"/></linearGradient></defs><title>hero</title><path d="M-141.05131,544.85437c78.446-9.20044,101.6578,103.80886,263.9516,172.398,141.01479,59.59617,175.61505-3.40867,291.60367,62.2265,130.7996,74.01638,119.52932,175.3377,227.92012,211.16206,122.76944,40.57667,166.04367-79.88554,292.44161-53.04554,172.65515,36.66251,227.46637,290.21248,311.71428,262.16739,78.0286-25.97475,46.71759-248.70007,149.1536-301.95154,80.40649-41.79941,138.87419,80.16556,247.19277,58.14607,143.0194-29.07363,157.15179-263.48206,251.38248-274.40867,129.55833-15.023,346.33889,399.86086,321.76957,822.2059-23.03623,395.991-258.82494,806.5748-486.00613,816.08525-138.16809,5.78412-193.95954-147.10286-383.77724-128.53342-145.20745,14.20528-168.54789,109.152-304.1728,117.31225-163.75468,9.85271-225.93507-119.07552-380.42549-191.78-336.09986-158.17144-537.98613,226.73182-785.98921,93.8498-279.6469-149.837-317.93956-797.28477-248.86865-1189.44426C-366.76958,984.95518-289.35421,562.24786-141.05131,544.85437Z" transform="translate(403 -544.32564)" style="fill:#e6e6e6"/><path d="M-115.22957,751.16064c76.53511-7.37339,99.18145,83.19407,257.52183,138.1625,137.57973,47.76132,171.33713-2.73176,284.50032,49.86931,127.61336,59.3179,116.61762,140.51842,222.36806,169.22864,119.77882,32.51878,161.9989-64.02155,285.31784-42.51155,168.44932,29.38192,221.92536,232.5809,304.121,210.10512,76.12786-20.81658,45.57957-199.31219,145.52028-241.98877,78.44781-33.49871,135.49126,64.246,241.17124,46.59919,139.5355-23.30007,153.32363-211.15871,245.25889-219.91547,126.40233-12.0397,337.9022,320.45485,313.93138,658.92888-22.47508,317.35349-252.52006,646.40188-474.16719,654.02371-134.80237,4.63547-189.23476-117.89058-374.42857-103.00874-141.67024,11.38434-164.44212,87.47617-296.76326,94.01591-159.76567,7.89612-220.43137-95.429-371.15845-153.69557-327.91259-126.7611-524.881,181.70649-766.8428,75.21273-272.83479-120.08175-310.19466-638.9567-242.8063-953.23956C-335.44942,1103.86442-259.91986,765.10006-115.22957,751.16064Z" transform="translate(403 -544.32564)" style="fill:#fbbbf9"/><path d="M-115.22957,751.16064c76.53511-7.37339,99.18145,83.19407,257.52183,138.1625,137.57973,47.76132,171.33713-2.73176,284.50032,49.86931,127.61336,59.3179,116.61762,140.51842,222.36806,169.22864,119.77882,32.51878,161.9989-64.02155,285.31784-42.51155,168.44932,29.38192,221.92536,232.5809,304.121,210.10512,76.12786-20.81658,45.57957-199.31219,145.52028-241.98877,78.44781-33.49871,135.49126,64.246,241.17124,46.59919,139.5355-23.30007,153.32363-211.15871,245.25889-219.91547,126.40233-12.0397,337.9022,320.45485,313.93138,658.92888-22.47508,317.35349-252.52006,646.40188-474.16719,654.02371-134.80237,4.63547-189.23476-117.89058-374.42857-103.00874-141.67024,11.38434-164.44212,87.47617-296.76326,94.01591-159.76567,7.89612-220.43137-95.429-371.15845-153.69557-327.91259-126.7611-524.881,181.70649-766.8428,75.21273-272.83479-120.08175-310.19466-638.9567-242.8063-953.23956C-335.44942,1103.86442-259.91986,765.10006-115.22957,751.16064Z" transform="translate(403 -544.32564)" style="opacity:0.30000000000000004;fill:url(#80c2e16e-2696-40f9-9974-4070005ba4b1)"/><path d="M-318.79445,1045.4713c44.39871-36.93758,175.96467,96.26958,306.16773,85.68578,34.87081-2.83453,69.83072-12.02585,69.8308-12.02588,103.87176-35.06024,166.10407-73.82778,197.97028-90.44849C422.052,941.643,787.44435,1221.71019,758.70961,1298.088c-16.122,42.85264-147.02949-3.0853-311.73976,123.86276-3.31,2.5511-3.56165,2.80808-6.24045,4.8877-302.09158,234.521-756.90794,150.70948-783.23221,59.28136-3.31627-11.5179-6.27059-45.51807-8.99282-76.84779-1.82577-21.01222-4.43085-51.45163-4.90518-91.56332-.29081-24.59-.63505-60.61681,4.08765-107.91391a936.34353,936.34353,0,0,1,17.98565-108.73144C-326.4997,1066.1048-322.58585,1048.62556-318.79445,1045.4713Z" transform="translate(403 -544.32564)" style="opacity:0.1;fill:url(#9b3f1dcc-ecd8-4cb6-8d49-ca14a7f617f0)"/><path d="M-341.68528,1132.947c40.98027-37.31992,186.184,90.752,315.97809,79.96307,35.23519-2.92886,69.83071-12.02585,69.83079-12.02587,103.87177-35.06024,166.10407-73.82778,197.97029-90.4485,166.87765-87.03971,532.27,193.02748,503.53524,269.40525-16.122,42.85264-147.02949-3.0853-311.73975,123.86277-3.31,2.5511-3.56165,2.80807-6.24045,4.8877-302.09159,234.521-756.90795,150.70947-783.23221,59.28135-3.31628-11.51789-6.27059-45.51806-8.99283-76.84779-1.82577-21.01221-4.43084-51.45163-4.90518-91.56332-.1676-14.17241-.37059-54.9476,4.08765-107.91391,2.80642-33.34191,6.19759-56.51715,11.44542-92.38085C-347.75213,1156.82272-344.65411,1135.65063-341.68528,1132.947Z" transform="translate(403 -544.32564)" style="opacity:0.2;fill:url(#83cc0b37-3bb2-4f7e-a7ff-3e06ef1ece1a)"/><path d="M-353.94822,1234.06093c32.2511-39.71483,166.50864,81.81949,327.4235,75.0579,28.49932-1.19752,50.747-5.58447,69.83079-12.0259,103.87177-35.06023,166.10407-73.82777,197.97029-90.44848,166.87765-87.03972,532.27,193.02747,503.53524,269.40525-16.122,42.85264-147.02949-3.0853-311.73975,123.86276-3.31,2.5511-3.56165,2.80808-6.24045,4.8877-302.09159,234.521-756.90795,150.70948-783.23221,59.28136-3.31628-11.5179-6.27059-45.51807-8.99283-76.84779-3.4485-39.68778-4.31678-69.89-4.90517-91.56332-.92741-34.16267-1.91774-70.64044.81752-119.35933,1.37739-24.53319,3.37087-43.879,7.35777-82.57049C-358.22,1255.8588-356.22188,1236.86078-353.94822,1234.06093Z" transform="translate(403 -544.32564)" style="opacity:0.30000000000000004;fill:url(#d7546381-71d5-4499-809f-d4a89f89253f)"/><path d="M130.88208,1327.02432c-6.14811-14.252,56.4957-55.54485,96.07927-76.72382,30.08572-16.09718,49.63171-26.55516,79.0661-31.00631,48.92966-7.39929,88.57429,7.33654,117.824,18.60379,35.47892,13.66682,55.6432,28.25759,86.04252,48.05978,125.25531,81.5916,171.52714,87.019,168.98441,106.19663-3.97084,29.9486-123.212,64.95477-222.4703,25.5802-76.96911-30.53271-78.98025-80.823-154.2564-100.77051C213.3144,1293.423,137.6302,1342.66726,130.88208,1327.02432Z" transform="translate(403 -544.32564)" style="opacity:0.5;fill:url(#bc7b8b59-cf80-4e74-b0a0-e2fa8efce7a3)"/><path d="M1391.4954,1933.78729" transform="translate(403 -544.32564)" style="fill:url(#d44428bf-86c6-486f-a76b-d9c9800cfdf7)"/><path d="M126.89287,1313.20263c52.19075-22.3774,88.74887,55.99979,191.84848,58.21144,93.39977,2.00357,113.225-58.59089,217.97253-83.40744,117.26469-27.78209,270.80157,16.56486,293.89555,98.17751,27.36765,96.7155-135.6059,220.48795-142.86589,225.89516-193.34713,144.00413-518.13207,146.28846-606.56776-11.29476C26.12584,1502.69124,61.80387,1341.11029,126.89287,1313.20263Z" transform="translate(403 -544.32564)" style="fill:#fff;opacity:0.1"/><path d="M420.40357,1356.96107H359.67l-60.73344-12.48065-70.85577,9.60054-39.04293,26.88137-49.16519,40.32217v40.32206l-41.935-40.32206-15.90637,27.84141-57.84145,7.68041L-33.65155,1508.649-59.6802,1562.412l-75.41241-65.66429-54.28315,58.86213-167.025,73.57767A895.25894,895.25894,0,0,0-307.667,1831.06584c48.18776.323,96.38163,1.085,144.54966.05144q176.08194-3.77827,352.16383-7.55641Q355.33618,1628.663,521.626,1433.76515,471.01472,1395.36305,420.40357,1356.96107Z" transform="translate(403 -544.32564)" style="opacity:0.54;fill:url(#badf3fea-d7b1-424f-9897-eda9fb8b57aa)"/><path d="M1762.26685,1377.38833l-158.98536-61.31472-110.26122-6.52237-42.59307-34.34343-21.98359-47.69921-45.34106-54.37711-13.73962-36.2514-38.4714-35.29743h-20.60929l-39.84529-33.38941-38.47129,32.43546-24.73127-5.72391-28.85345,20.98765-10.99174,38.15935-31.60144,11.44781V1201.751l-32.97522-35.29738-23.63132,14.72758q.13683,29.36457.27374,58.72915l-31.60133-6.67786-37.0972,20.03364-41.21908-42.92925-21.98369-27.66557L932.44,1168.36159l-26.10546,2.86193-38.47114,13.35578L850.00183,1203.659l-39.84519.954v38.15936l-35.72326,16.21776v40.06726l-8.24381,19.07968-8.2439-62.96294-42.59308,18.12572-24.73142,20.03363L604.061,1318.13706l-50.837,41.97536-6.86981,15.26368L458.42,1383.008l-6.86984,47.6992v21.9416l-12.36576-28.61952v-30.52742q-56.60763,25.01244-113.21521,50.02483-14.3992,35.18757-28.79843,70.37508-34.64808,55.60492-69.29622,111.20989Q126.63,1694.18356,25.38553,1763.25521q970.40765,12.67527,1940.81534,25.35053Q1864.23372,1582.99705,1762.26685,1377.38833Z" transform="translate(403 -544.32564)" style="fill:url(#2ce95871-72df-409d-985a-8ce7bb9c8551)"/><path d="M1762.60444,1377.38833q-79.361-30.65736-158.72212-61.31472l-111.32354-6.82333q-20.8454-17.00914-41.69069-34.01827-10.96705-23.9352-21.93432-47.87039-22.356-27.18064-44.71221-54.36128-6.749-18.25566-13.49806-36.5113-19.40352-17.44431-38.80692-34.88859h-20.24705q-20.24709-16.63293-40.49408-33.26586-1.57245,38.61708-3.14488,77.23422l28.97139,12.29575v44.46513l23.53911,41.50075q4.97964,268.4007,9.95909,536.80134,317.8503,3.987,635.70071,7.974Q1864.40256,1582.99705,1762.60444,1377.38833Z" transform="translate(403 -544.32564)" style="opacity:0.1"/><path d="M932.84342,1168.10075q.81754,63.76731,1.63506,127.53462l12.93956,26.72377L935.4468,1788.45128h162.5376q-9.21741-274.45962-18.43483-548.91922-16.16787-3.24545-32.33573-6.4909-18.3525,10.04135-36.70511,20.08267c-7.43161-7.9653-13.64262-14.37671-17.98565-18.80318-11.6487-11.87259-14.27653-13.968-20.43824-21.25577-7.61484-9.00642-13.08047-16.35052-13.08047-16.35059-4.98043-6.69221-6.79432-9.73045-11.44542-13.898-2.24581-2.01236-4.115-3.35774-7.35776-6.54024A88.45494,88.45494,0,0,1,932.84342,1168.10075Z" transform="translate(403 -544.32564)" style="opacity:0.1"/><polygon points="1724.214 562.863 1699.599 562.863 1679.6 551.542 1665.754 572.926 1645.754 572.926 1605.755 604.374 1653.446 594.311 1648.831 634.565 1676.523 586.764 1705.753 576.7 1724.214 562.863" style="fill:#f53cef"/><path d="M927.28486,1224.28257l21.75068-2.68346.44605-12.487-26.43133-6.89665-18.074,6.81173-23.69888-14.73151-12.15186,17.10726-22.24488,8.38364,23.92169,6.29583,31.67989-.8039q21.47589,14.7348,42.95179,29.46956Q936.35949,1239.51533,927.28486,1224.28257Z" transform="translate(403 -544.32564)" style="fill:#f53cef"/><path d="M1952.24539,2051.74475c-47.7187,44.25947-83.77663,77.70328-145.46279,99.02662-23.08484,7.97984-88.57134,29.731-165.95852,13.08047-74.77921-16.08943-77.46932-50.13437-169.22863-76.84779-23.7874-6.9251-73.16152-20.836-135.70992-16.35059-79.13811,5.675-139.74538,37.9576-175.76887,62.13225-37.94438,18.09089-105.36862,42.57107-182.30911,29.43107-51.26166-8.75456-94.01586-31.06608-94.01591-31.06612-20.3087-10.59825-29.00065-18.19478-85.02308-50.68684-24.55039-14.23881-25.03265-14.02779-26.97848-16.35059-37.12539-44.31795,41.79466-236.4947,186.60493-295.84808,60.53043-24.80964,119.70991-21.13961,235.18637-13.97837a1190.20119,1190.20119,0,0,1,148.46366,18.45976c278.45976,51.66165,775.58-3.173,777.8514,19.94685.23253,2.36729-3.85173,14.43583-7.35776,22.89083,0,.00007-1.87318,4.51742-4.08765,8.99282C2034.65421,1973.72191,1952.24539,2051.7447,1952.24539,2051.74475Z" transform="translate(403 -544.32564)" style="fill:#111f8b"/><path d="M874.01651,1882.20734c2.20066-29.71169,63.619-37.8459,62.48449-57.77632-1.28493-22.57161-81.773-42.2411-153.04161-46.04046-77.7689-4.1457-174.10817,9.04649-220.39769-10.62352-3.28913-1.39759-11.566-5.767-23.691-7.088-24.01124-2.616-43.89075,10.41208-113.32289,11.98573a734.17566,734.17566,0,0,1-98.23638-4.89769c-43.04412-5.03638-46.7551-9.34578-72.38463-9.79541-49.38122-.86685-62.40548,14.65962-103.4067,19.5908-73.67392,8.8597-114.24611-31.33633-124.55462-23.27018-.86947.68028-1.12561,1.609-2.11855,3.67938l81.79155,335.57266a1659.36833,1659.36833,0,0,1,224.00312-83.388c65.12-18.93382,99.93414-24.50044,131.62227-26.97848,28.71471-2.24551,80.51734-5.89036,144.70275,8.99283,57.17572,13.25781,99.87333,36.00134,122.62944,48.23425,22.96094,12.343,61.73422,35.39024,81.753,48.23424,14.31989,9.18763,29.21526,17.47729,43.32907,26.97848,5.89805,3.97049,6.50885,4.51318,8.1753,4.90518,28.753,6.76353,105.38877-94.53056,80.39214-158.87324C926.58146,1917.4682,871.88681,1910.96089,874.01651,1882.20734Z" transform="translate(403 -544.32564)" style="fill:#1b44f7"/><path d="M2135.42944,1746.09424C2098.71533,1712.553,2032.63416,1652.21594,2005,1627c-73.39685-66.97412-110.60437-100.58691-135.54919-106.751C1780.35449,1498.23279,1749.49927,1602.593,1626,1622c-165.25989,25.96936-221.33643-106.33069-388-77-117.51221,20.68066-111.37952,90.28027-214,97-162.471,10.63892-230.06-160.39954-359-131-91.32471,20.82288-94.22186,115.01587-185,122-91.0332,7.00378-111.77435-81.78259-209-78-30.45369,1.18481-46.42694,10.67126-224,130-108.485,72.90173-114.02559,77.09058-113,84,6.81889,45.93933,278.13089,38.53687,964.07568,20.93652,391.04041-10.03344,619.1084-14.73217,933.21411-7.66064,124.52039,2.80334,225.6941,7.27966,288.60669,10.41748Q2127.66309,1769.39374,2135.42944,1746.09424Z" transform="translate(403 -544.32564)" style="fill:url(#94c04c10-f34b-4f76-9633-af5fc75576dc)"/><path d="M2127.25415,1769.80261c-26.60083-16.49463-66.09155-42.15661-111.85779-76.69311-91.81579-69.28675-100.66113-84.24317-131.37378-90.99475C1799.41211,1583.51477,1769.1239,1688.47229,1654,1721c-145.324,41.06055-201.79858-96.59277-400-83-135.95947,9.32422-137.87793,77.52539-260,71-151.18744-8.07849-183.15-113.73657-306-97-106.79358,14.54919-123.12469,99.90869-222,94-88.00867-5.2594-98.86661-74.30957-181-72-69.45995,1.95325-81.20679,51.88684-205.46149,108.32886-95.3585,43.316-155.298,44.24023-154.66836,53.68445,1.92258,28.83654,392.70224,15.41027,769.90231,15.41027l.0025-.00012q409.28615-19.96509,905.12458-5.71875l.00488-.00024h.00195c.016.00024,362.48364,6.986,512.6322,9.87976Q2119.89649,1792.69348,2127.25415,1769.80261Z" transform="translate(403 -544.32564)" style="fill:url(#99012076-582b-4df3-ac31-a3ff03e8beae)"/><path d="M906.68247,1967.64473c16.75711,40.48154-3.26358,99.436-37.60636,115.27168-46.26113,21.33126-90.3994-48.53933-193.75453-89.11073-154.78711-60.76071-300.3229-.03917-304.121-17.98566-2.75045-12.99624,73.27351-46.24715,159.11814-64.05507C654.24794,1886.05658,869.50553,1877.83343,906.68247,1967.64473Z" transform="translate(403 -544.32564)" style="fill:#fff;opacity:0.1"/><path d="M673.70952,1824.07321" transform="translate(403 -544.32564)"/><line x1="1606.92881" y1="617.701" x2="1606.92881" y2="608.1439" style="fill:none"/><line x1="1671.3062" y1="617.701" x2="1671.3062" y2="608.1439" style="fill:blue"/><polygon points="1352.441 664.78 1364.675 680.196 1352.211 677.225 1352.441 664.78" style="fill:#f53cef"/><path d="M137.81877,1917.49912c-18.55534-28.78858-10.92143-76.82527,13.72541-93.71271,33.2003-22.74807,77.09671,24.84759,163.22131,41.79288,128.98228,25.37768,234.29406-41.282,239.68769-28.01984,3.90588,9.604-50.89871,45.60164-115.45619,71.08851C345.79885,1945.442,178.98522,1981.36874,137.81877,1917.49912Z" transform="translate(403 -544.32564)" style="fill:#fff;opacity:0.1"/><path d="M378.55833,1925.13319q-37.90245-26.17978-75.7515-52.41785-3.76821-38.13489-7.53635-76.26969-7.4324,13.99281-14.86473,27.98537-4.90632-15.68046-9.81263-31.36068L258.32123,1813.319l-26.07777,13.49914v14.84911q-24.53734,23.33855-49.07471,46.6771,3.67887,11.44539,7.35776,22.89083,18.80319,71.12508,37.60637,142.25016a641.15127,641.15127,0,0,1,103.00873-43.32907,624.49982,624.49982,0,0,1,73.57767-18.80318c22.25622-4.2334,41.93469-6.69233,58.0446-8.1753Q420.63838,1954.19851,378.55833,1925.13319Z" transform="translate(403 -544.32564)" style="fill:url(#7b11cc19-9341-4013-a4df-980e935efae6)"/><path d="M270.18628,1792.8347l-7.43237,33.40185q.929,22.11754,1.85808,44.23492-22.25577,12.51264-44.51155,25.02532a537.91546,537.91546,0,0,0,38.281,143.273,603.92,603.92,0,0,1,204.38241-55.592L302.70282,1872.277q-3.71616-37.91565-7.43234-75.83138-7.4324,13.99281-14.86473,27.98537Q275.296,1808.63293,270.18628,1792.8347Z" transform="translate(403 -544.32564)" style="opacity:0.2"/><path d="M1967.83593,2035.49969q-208.9389-133.36394-417.87809-266.7279l-22.21012,22.94856-15.73236,60.74621-28.68808,45.89707q-73.72093,86.14494-147.44175,172.28983a348.13885,348.13885,0,0,1,40.87648-.81753,392.12258,392.12258,0,0,1,79.30037,12.26295c93.26534,25.19013,144.00617,86.41983,233.81348,92.38085,39.68372,2.634,69.25669-6.71958,99.73861-16.3506C1884.43474,2128.17,1942.34641,2066.61237,1967.83593,2035.49969Z" transform="translate(403 -544.32564)" style="fill:url(#fa38d78e-a736-458a-a587-0575aa2f5aa5)"/><path d="M1550.40921,1768.46038q1.46955,50.5404,2.9392,101.08079,12.67176,30.24863,25.34342,60.4972-10.21917,31.4749-20.43824,62.94978.81747,67.4462,1.63506,134.89239,15.533,8.17531,31.06612,16.35059c51.02485,25.54076,94.927,29.29814,119.35933,29.43107,91.45314.49758,159.94839-51.02829,195.38958-78.48285a407.51558,407.51558,0,0,0,62.13225-59.67966q-109.55576-71.74475-219.91547-142.25016Q1649.48578,1830.36257,1550.40921,1768.46038Z" transform="translate(403 -544.32564)" style="opacity:0.25"/><path d="M-53.31286,1648.91523l-75.81471-18.91024c-19.45455,17.65565-47.49347,42.85254-81.753,72.76014-73.57509,64.229-99.60022,83.62873-100.55614,116.08921-.32164,10.92243,8.78458,28.275,25.34342,63.76731,9.57027,20.513,25.66543,54.5461,53.95695,92.38085,13.32822,17.82408,30.81846,41.21409,58.86214,64.58484,17.8152,14.84666,75.50577,61.627,160.2358,68.67249,35.71336,2.96968,61.8649-2.31448,103.00874-10.62789,34.63613-6.9985,65.60229-18.56367,127.53462-41.694,50.11668-18.71746,54.94483-22.62413,58.0446-28.61354,18.5231-35.79042-99.18887-155.07864-99.18892-155.07869C119.747,1815.204,42.70793,1739.19352-53.31286,1648.91523Z" transform="translate(403 -544.32564)" style="fill:url(#dedee7ce-0f66-462f-98d7-ec326d4058d5)"/><path d="M-129.08678,1629.9562q31.63475,69.4062,63.26958,138.8124,23.93682,66.32813,47.87366,132.65623,2.45259,103.41747,4.90517,206.835a288.77243,288.77243,0,0,1-71.12507-16.3506,299.38771,299.38771,0,0,1-62.13226-31.88365c-42.3083-28.25991-66.766-59.9056-85.84061-85.02308-32.52442-42.8282-49.53915-81.16931-60.49719-106.27886-11.89929-27.26636-18.90837-40.60868-18.80318-49.8693.38149-33.58214,28.916-53.99264,100.55614-116.08921C-192.62471,1686.94128-164.101,1661.93662-129.08678,1629.9562Z" transform="translate(403 -544.32564)" style="opacity:0.30000000000000004;fill:url(#d480e027-5ce1-4063-b026-d4095e14ce4f)"/><path d="M-184.71959,1005.77345c-1.774,35.67647,80.01991,81.7678,161.05334,87.35042,133.45268,9.19393,164.73466-93.48006,311.47879-104.50854,134.95479-10.14245,274.29616,64.45819,276.325,58.49359.24-.70556-1.74548-1.64226-8.99282-9.359-6.16371-6.56291-10.13335-11.64131-11.44542-13.25854-5.0389-6.2109-28.73833-32.687-56.40954-53.8141a299.57927,299.57927,0,0,0-95.651-48.35469c-26.7327-7.70761-47.97056-9.54919-72.76013-11.69872-48.20828-4.18019-47.88952,2.42833-88.29321-2.33974-2.15438-.25425-44.64931-5.46626-88.2932-20.27778-19.20339-6.51707-35.15369-13.25849-35.15377-13.25854-23.354-9.8706-25.43912-13.9344-31.88366-14.03846-31.24493-.50444-49.00937,37.60021-72.76013,63.953C-65.87383,1000.521-183.12113,973.62792-184.71959,1005.77345Z" transform="translate(403 -544.32564)" style="opacity:0.5;fill:url(#bc7b8b59-cf80-4e74-b0a0-e2fa8efce7a3)"/><g id="16fd5ab3-ad1c-49cf-b63f-97f08bc7eb92" data-name="bird2"><path d="M1182.77256,1867.03386c-.27588-.62442,1.61512-2.29667,4.08086-3.60952,5.13676-2.735,3.66905-7.39669,8.55036-10.63861.2579-.17128,5.31565-3.42678,10.105-1.5198,5.67119,2.25814,6.28273,10.8639,6.41278,12.53836.58421,7.52233-2.96177,13.81238-1.94327,14.24812.42889.18351,1.01189-.95145,2.72057-2.08972a12.8985,12.8985,0,0,1,6.21845-1.89975c8.667-.908,13.00051-1.36195,13.9915-1.32983,21.76022.70531,27.68822,5.16873,40.80855,2.84963,10.802-1.90933,17.67614-6.86,25.06811-3.0396.4709.24338,3.75232,1.97535,3.49788,3.60952-.38251,2.45674-8.16007.86312-14.76881,5.69925-4.53469,3.3184-3.7005,6.13795-8.356,9.68873-4.52224,3.44912-9.48553,3.97392-13.01987,4.36943-29.9285,3.34914-18.66146,4.2839-37.31067,4.74937-20.81.5194-48.20216,1.20309-49.55325-5.12932-.88822-4.16306,5.15824-10.34826,7.19008-12.34838,5.78169-5.69146,11.37787-6.62988,11.46526-10.44863.05245-2.29176-1.9013-4.6533-3.88653-5.50927-1.26015-.54335-3.18916-.43294-6.99575-.19C1184.1299,1867.2201,1182.96032,1867.45882,1182.77256,1867.03386Z" transform="translate(403 -544.32564)" style="fill:aqua"/><path d="M1187.90718,1939.12351c-.20759.64922,1.85187,2.119,4.44451,3.17274,5.401,2.19509,4.43978,6.98121,9.641,9.70659.27486.144,5.653,2.86478,10.21215.47884,5.39866-2.82531,5.08675-11.44639,5.03706-13.125-.22338-7.54083-4.42251-13.43407-3.45615-13.97152.407-.2263,1.108.84284,2.92908,1.80027a12.94065,12.94065,0,0,0,6.38755,1.25392c8.7166.01729,13.0749.02593,14.05705-.10729,21.5656-2.92508,26.98384-7.96981,40.28033-7.00415,10.94691.795,18.31282,5.01612,25.25577.46124.44233-.29015,3.52058-2.348,3.09277-3.94719-.68309-2.55342-9.138-.1662-15.29732-4.15882-6.43534-4.17154-3.48416-10.85858-8.09005-15.80385-7.55013-8.1065-22.28995,2.55111-56.91539,3.37218-17.97081.42616-26.95616.63923-32.76947-.843-4.68348-1.19418-8.32417-2.66639-10.34826-.84305-3.665,3.30143-.718,16.22506,7.48486,23.12136,5.71016,4.80058,11.98275,5.11163,12.51962,9.21977.29717,2.27386-1.39333,4.82214-3.27615,5.87625-1.19521.66918-3.1254.7565-6.93715.90387C1189.23724,1938.7996,1188.04845,1938.68167,1187.90718,1939.12351Z" transform="translate(403 -544.32564)" style="opacity:0.1"/></g><path id="3a068e0e-e623-4341-82c3-9b26cd5bd69a" data-name="bird1" d="M1471.30421,1832.84621c.14012-.31714-.82031-1.16647-2.07265-1.83327-2.609-1.38909-1.8635-3.75676-4.34271-5.40332-.131-.087-2.69981-1.74045-5.13229-.7719-2.88038,1.1469-3.191,5.51775-3.257,6.3682-.29672,3.82057,1.50428,7.01527.987,7.23659-.21783.0932-.51394-.48324-1.38177-1.06137a6.55123,6.55123,0,0,0-3.15833-.96488c-4.402-.46115-6.60293-.69173-7.10625-.67541-11.052.35822-14.06278,2.62518-20.72656,1.44731-5.4863-.96974-8.97767-3.48418-12.732-1.5438-.23917.12361-1.90579,1.00327-1.77656,1.83327.19427,1.24777,4.14448.43837,7.501,2.89463,2.30316,1.68541,1.87947,3.11745,4.244,4.92088a12.49014,12.49014,0,0,0,6.61276,2.21922c15.2006,1.701,9.4781,2.17578,18.95,2.4122,10.56935.2638,24.48176.611,25.168-2.60517.45113-2.11441-2.61986-5.25586-3.65183-6.27171-2.9365-2.89068-5.77879-3.3673-5.82317-5.30683a3.32472,3.32472,0,0,1,1.974-2.79815c.64-.276,1.61977-.21989,3.55312-.09649C1470.61482,1832.9408,1471.20885,1833.06205,1471.30421,1832.84621Z" transform="translate(403 -544.32564)" style="fill:aqua"/><path d="M2110.08609,1112.50873c-1.87677,4.03054-159.82225-66.37006-238.71865-72.76013-51.43671-4.166-75.4237,3.73591-86.28471,8.80506-1.70392.7953-2.54979,1.20658-3.64355,1.82282-33.21733,18.71392-16.80706,67.13181-36.78884,84.20555-32.40978,27.693-143.60788-41.55706-139.79756-51.50436.60875-1.58926,3.763-1.73835,13.08047-1.63506,16.41766.182,27.90229-5.34847,49.05178-15.53307,33.93267-16.34041,58.12494-45.66083,69.49-59.67966,10.11942-12.48229,22.55182-32.3024,47.41672-71.94261,14.34189-22.86428,21.95334-35.95049,38.42389-49.8693,4.74091-4.00647,21.95294-18.55195,40.059-23.70836,59.13757-16.84184,128.8659,63.82339,147.97286,85.84061,28.26066,32.56531,50.96847,72.09816,58.86214,85.84061,4.83691,8.42082,14.16146,25.3292,22.89083,42.51154,7.28132,14.33242,12.61682,25.84028,13.898,28.61354.13213.28619,1.25923,2.42038,2.57833,5.373A24.87369,24.87369,0,0,1,2110.08609,1112.50873Z" transform="translate(403 -544.32564)" style="opacity:0.5;fill:url(#bc7b8b59-cf80-4e74-b0a0-e2fa8efce7a3)"/><path d="M271,1555c.47894-.4187,1.04553-.15295,3,0,12.462.97534,9.96777.1615,18,1a178.24214,178.24214,0,0,1,19,3c18.45312,4.10425,32.86447,13.239,48,23,11.29346,7.2832,8.71548,6.62646,24,17,19.51642,13.24585,29.27466,19.86865,42,25,17.58423,7.09058,28.09387,11.32837,41,9a8.8219,8.8219,0,0,1,5,0c15.54492,5.65564,9.35785,69.91077-5,73-1.286.27673-4.524-.14893-11-1-.00009,0-6.51855-.85669-12-2-20.8515-4.34912-42.99991-17-43-17-18.65094-10.6532-14.40582-12.03369-39-28-25.01956-16.24243-36.76254-19.58508-43-21-8.5871-1.94788-16.067-3.64465-25-3-6.98975.50439-14.10681-.26294-21,1-1.24527.22815-2.44315.611-3,0-2.58026-2.83093,17.75583-16.00964,20-34C291.70657,1579.30286,267.12732,1558.38586,271,1555Z" transform="translate(403 -544.32564)" style="opacity:0.1;fill:url(#e4df76ec-dcb6-4ca1-b4c6-f6458e1b7b06)"/><g id="12bf0cc6-f011-459b-ad1c-36d1f9771b39" data-name="person"><g id="b5653857-afd0-443c-9897-c38a4f18a499" data-name="person"><path d="M807.6393,1842.46964c-39.43142-12.73583-95.14357,16.72613-96.95291,45.03278-.93019,14.55183,12.57163,25.88143,36.02622,45.56257,12.314,10.33286,29.10018,22.47965,89.00595,52.44994,41.58269,20.8036,39.66166,18.03613,54.56913,27.01966,46.352,27.93232,47.90132,44.4277,70.463,49.801,44.37315,10.56775,106.92959-36.91223,102.78069-67.81406-2.59819-19.35183-39.52433-33.56323-113.37663-61.98629-48.79931-18.78116-60.09637-18.6826-82.64839-35.49642C832.23776,1870.7437,833.44739,1850.80542,807.6393,1842.46964Z" transform="translate(403 -544.32564)" style="fill:#89a2f9"/><path d="M813.99687,1835.05248c-39.43142-12.73583-95.14357,16.72613-96.95291,45.03278-.93019,14.55183,12.57162,25.88142,36.02621,45.56257,12.314,10.33286,29.10018,22.47965,89.006,52.44993,41.58269,20.8036,39.66165,18.03614,54.56912,27.01967,46.352,27.93232,47.90133,44.4277,70.463,49.801,44.37315,10.56775,106.92959-36.91223,102.78069-67.81406-2.59819-19.35183-39.52433-33.56323-113.37664-61.98629-48.7993-18.78116-60.09636-18.6826-82.64838-35.49642C838.59532,1863.32653,839.805,1843.38825,813.99687,1835.05248Z" transform="translate(403 -544.32564)" style="fill:#89a2f9"/><path d="M782.209,1847.23782c-7.04562-4.04462-10.56846-6.06706-13.24493-5.82777-8.58554.76727-16.61166,12.47145-14.30453,19.0727,2.10263,6.0161,12.62563,7.33,13.77473,14.30453a5.8566,5.8566,0,0,0,1.58939,3.70858c1.67385,1.51153,3.79278.84126,6.35757,1.0596,5.41542.46073,11.14689,4.73972,11.12574,8.47676-.01319,2.33105-2.26263,4.063-3.17878,4.76817-2.4282,1.8693-5.4323,2.42315-11.65554,2.11919a96.40249,96.40249,0,0,1-12.71514-1.58939c-13.8513-2.30027-17.63258-1.12427-18.54291-3.17878-1.58008-3.566,15.81328-8.21833,15.89392-16.95352.0348-3.7686-3.0634-7.78528-5.82777-7.947-2.2041-.12883-2.84184,2.27233-6.88736,5.82777-5.76608,5.06748-7.87265,3.1793-13.77473,8.47676-3.181,2.85516-3.09471,3.87543-6.88737,6.88736-2.03046,1.61242-3.18376,2.2162-3.70858,3.70859-1.15227,3.27631,2.01448,7.16726,2.649,7.947,4.63236,5.6917,10.67232,5.13034,22.25148,9.00655,9.85422,3.29882,7.76226,4.46939,15.89392,6.88737,10.51265,3.12575,12.61141.75356,25.43028,3.70858,2.25972.521,7.15763,2.11324,16.95351,5.298,9.10473,2.95993,14.63876,4.76662,17.48331,5.82777,18.5995,6.9391,17.0462,17.592,35.49643,27.01967,11.38928,5.81975,13.53712,2.55534,37.61561,10.59594a59.31465,59.31465,0,0,0,14.83432,3.17879c11.30156,1.31337,14.517-.796,20.6621,1.58939,6.31194,2.45005,5.45985,5.66169,13.77473,12.71514,9.9663,8.45451,20.70139,11.92561,26.48987,13.77473,9.85347,3.14774,12.55578,2.31113,16.20975,3.335a18.60369,18.60369,0,0,1,4.45234,1.96294c11.4582,6.378,20.62252,5.84665,24.90048,13.24493,1.37749,2.38228,1.70558,4.33048,3.70858,5.298,2.28753,1.10486,4.82855-.7008,7.41716-2.11919,9.8668-5.40611,12.00507-2.58328,20.1323-7.947,1.46054-.96388,8.72016-5.84355,7.947-9.00656-.34247-1.40106-2.55608-1.96165-3.17878-2.11919-3.12181-.79055-4.95715,1.14859-9.00656,2.11919a21.48158,21.48158,0,0,1-9.00655,0c-1.85879-.30525-4.77115-1.26292-10.59595-3.17878-1.08452-.35674-1.99265-.65526-3.17878-1.0596-11.26576-3.83922-16.89867-5.7587-21.72169-8.47675-4.47159-2.5199-7.41018-5.02118-12.71514-9.53636-6.34269-5.3986-6.08426-6.23339-10.06615-9.00655-5.82686-4.05807-11.553-5.8733-16.42372-7.41716-7.12684-2.25914-11.96312-2.71108-16.42371-7.41717-1.22891-1.29655-.92915-1.33329-2.11919-2.649-5.31634-5.878-11.69267-5.58047-20.1323-8.47676-10.93018-3.751-8.46751-7.07543-18.01311-9.53635-7.63349-1.96786-12.49745-.69019-15.89392-4.76818-2.68029-3.2181-2.72045-7.69913-2.11919-7.947.61691-.254,1.91431,3.9458,6.35757,6.88737a18.30839,18.30839,0,0,0,4.76817,2.11919c6.99233,2.34192,9.43307,2.36572,13.24494,3.70858,5.35346,1.88585,4.26217,3.319,10.59594,6.35756,7.59333,3.64288,8.86434,1.44065,15.36413,4.76818,5.467,2.79877,5.62871,4.90011,12.71513,9.00656a88.621,88.621,0,0,0,9.00656,4.23837c6.34424,2.78429,9.66117,3.82939,11.65554,4.76818,1.74008.81927,4.88782,2.42212,19.0727,13.77473,7.604,6.08569,6.293,5.29979,8.47676,6.88737,7.98137,5.80216,21.95461,13.72739,24.90048,10.59594,1.833-1.94845-.69181-8.08432-4.23838-11.65554-1.68847-1.70011-3.97419-2.746-8.47676-4.76817-7.81943-3.512-10.59569-3.52207-13.77473-6.88737-1.73012-1.83153-1.43677-2.38848-3.17879-4.76818-4.09027-5.5877-9.38023-7.53434-13.24493-9.53635-7.88177-4.08316-5.77138-6.2916-18.54291-16.95351-7.62049-6.36171-12.22375-10.20481-19.6025-13.77473-8.85315-4.28339-14.512-4.69523-20.1323-11.12575-2.775-3.17516-2.27272-4.07851-5.298-7.41716-2.39476-2.64278-5.92763-5.62858-16.42372-10.06615-6.95656-2.94131-16.47668-6.96627-27.54946-9.00655a58.97133,58.97133,0,0,1-11.12574-3.17879c-3.664-1.445-8.15495-3.64443-7.947-4.23838.22318-.63741,5.7598.84644,9.00655,1.58939,13.47627,3.08385,24.776,1.93449,33.37723,1.0596,11.15078-1.1341,26.1839-2.66322,32.84744-7.947.89423-.70907,3.26195-2.77368,6.35757-2.649,2.23728.09,2.86428,1.24353,6.88736,2.649,3.52879,1.23266,3.54432.51919,6.35757,1.58939,4.78887,1.82144,6.3394,4.49578,7.947,3.70858a2.60157,2.60157,0,0,0,1.0596-3.17878c-.48227-.78745-1.56909-.36864-3.70859-1.0596-1.42072-.45865-3.78133-1.56042-3.70858-2.649.05006-.74813,1.11056-1.48644,2.11919-1.5894,1.521-.15547,2.79508,1.14057,4.23838,2.649,2.28773,2.39107,2.59893,3.92485,4.23838,4.23838.74574.14254,1.81277.04165,2.11919-.5298.52889-.98664-1.41788-2.98683-3.17879-4.76817-2.72814-2.75971-4.12778-4.17552-6.35756-5.298-2.77264-1.39589-4.62144-1.227-10.596-1.58939-6.99957-.42451-7.67611-.871-11.65554-1.05959-11.65438-.55257-14.58185,3.10557-25.43027,3.70858-8.972.49875-6.923-2.00614-22.78129-3.17879-2.429-.17953-3.12769-.16892-24.37068-.52979-12.7022-.21575-13.24247-.23308-14.83432-.5298a82.952,82.952,0,0,1-21.1919-7.41716c-5.426-2.73746-8.37069-4.92934-11.65554-3.70858-1.05959.39372-3.00216,1.852-6.88736,4.76817-2.80815,2.10781-3.83825,3.01478-4.76818,2.649-1.35521-.53316-.80692-3.10454-1.58939-5.82777C793.18027,1853.60806,789.44459,1851.39161,782.209,1847.23782Z" transform="translate(403 -544.32564)" style="fill:#89a2f9"/><path d="M767.9045,1840.88025c-.95935-1.99553-7.08087-1.76737-11.65554.5298-8.22467,4.13-9.88584,14.16277-10.06615,15.36412-.19712,1.31337-1.27114,8.46822,2.649,14.83433,2.69464,4.376,6.31223,6.04584,5.82777,9.00655-.39412,2.40867-3.00178,2.60915-4.23838,4.76818-3.997,6.97842,10.52914,27.0877,19.0727,24.90047,3.18855-.81642,5.95466-4.84345,6.35757-8.47675.50781-4.57908-2.908-6.9999-1.58939-9.53636,1.765-3.3953,9.0136-1.22955,10.06615-3.70858,1.05015-2.47333-5.523-6.14052-12.18534-13.77473-3.89749-4.466-13.06-14.965-10.596-23.84088C763.15514,1845.15355,768.90692,1842.96529,767.9045,1840.88025Z" transform="translate(403 -544.32564)" style="fill:#89a2f9"/><path d="M786.44741,1885.913c.63909-.0952,1.03987,2.299,3.07362,5.6485.74639,1.22929,3.876,6.384,6.46273,6.007,2.38448-.34742,1.25381-5.188,4.76818-8.47676,4.71016-4.40756,12.08749-.79961,14.30452-4.76818,1.126-2.01571-.268-3.85732,1.5894-6.88736,1.33865-2.18386,2.60339-2.1091,2.649-3.17879.08117-1.905-3.86845-3.58544-17.48331-9.00655-3.87809-1.54412-4.82172-1.9112-4.76818-2.11919.1959-.76158,13.40442,1.92569,24.37068,4.76818,9.85325,2.554,14.73738,3.88992,17.48331,5.82777,4.87431,3.44006,6.7989,7.12355,13.77474,10.59594a37.62933,37.62933,0,0,0,6.09512,2.32149c1.36634.36941,2.405.55385,2.80977.62758,2.48368.45245,14.19574,4.45542,22.35315,6.58729,3.57031.93309,5.1132,1.154,5.298,2.11919.43305,2.26224-7.62508,3.2225-10.06615,8.47675-3.51165,7.55893,7.34583,18.09719,4.76818,20.6621-1.76065,1.75185-6.606-3.38367-14.30453-2.649-.32168.03079-7.7693.84514-12.18534,6.35757-7.14741,8.92171-.53911,22.89227-4.44138,24.49718-1.48624.61128-3.7461-1.41788-8.27375-5.42447-7.94522-7.03068-8.20152-9.77254-13.77474-13.77474-3.17083-2.277-6.17564-3.46049-12.18533-5.82777-8.91589-3.512-10.97532-2.17687-15.36413-5.298-4.07243-2.896-6.217-6.64523-8.47676-10.59595-3.26091-5.70075-2.26987-6.52261-5.82777-12.71513-1.55214-2.7015-2.62389-4.13672-3.17878-6.88737C785.24456,1889.46407,785.70147,1886.02426,786.44741,1885.913Z" transform="translate(403 -544.32564)" style="fill:#89a2f9"/><path d="M954.20049,1893.06105c5.15209,0,10.74194,2.39771,10.62707,4.25083-.11688,1.88594-6.141,3.18812-10.62707,3.18812s-10.51018-1.30218-10.62706-3.18812C943.45856,1895.45876,949.0484,1893.06105,954.20049,1893.06105Z" transform="translate(403 -544.32564)" style="fill:#89a2f9"/><path d="M951.54373,1873.69424c-.64052,1.11879.3906,2.4956,1.0627,4.89836,1.99,7.11447-2.10277,12.73257,0,14.6951a2.5127,2.5127,0,0,0,3.18812,0c2.084-1.88371-1.62169-7.10583,0-14.6951.49328-2.30855,1.25509-3.78574.53136-4.89836C955.36575,1872.2181,952.36307,1872.26313,951.54373,1873.69424Z" transform="translate(403 -544.32564)" style="fill:#89a2f9"/><path d="M937.19719,1855.335c-.67833.5731.11954,3.56241,2.12541,5.31354,2.40861,2.10271,4.67289.72895,6.37624,2.65676,1.618,1.8312.08809,3.5797,1.59406,6.37624a7.54924,7.54924,0,0,0,13.81519-.53135c1.24886-2.91242-.40916-4.85989,1.0627-6.37624,1.60022-1.64858,4.00461.12765,6.37624-1.59406,2.42748-1.76222,2.95942-5.85186,2.12541-6.37624-.29434-.185-.67645.12564-1.59405.53135a19.753,19.753,0,0,1-4.78218,1.06271,67.10911,67.10911,0,0,1-10.09572,1.06271,62.09936,62.09936,0,0,1-9.033-.53136,29.6453,29.6453,0,0,1-5.84489-1.0627C938.18038,1855.43733,937.53953,1855.04572,937.19719,1855.335Z" transform="translate(403 -544.32564)" style="fill:#89a2f9"/><path d="M953.66914,1852.67821c7.27439-.13089,16.96218.48757,17.0033,1.59406.03938,1.05953-8.76642,2.55853-17.0033,2.65676-7.90894.09435-16.47753-1.08868-16.47195-2.12541C937.203,1853.71688,946.63,1852.80489,953.66914,1852.67821Z" transform="translate(403 -544.32564)" style="fill:#89a2f9"/><path d="M976.87342,1852.791c-.713-3.22591-3.86938-6.17562-7.437-5.74993a6.71868,6.71868,0,0,0-5.45216,4.74406,6.1526,6.1526,0,0,0-.22213,1.26545l5.37952,1.28508-5.37952-1.28508c-.01047.13482-.00809.26919-.01.40371l6.04584,1.101-.16191-1.23146.16191,1.23146.14583.02657-.14583-.02657.84885,6.45684a6.68264,6.68264,0,0,0,3.65268-1.062A6.97318,6.97318,0,0,0,976.87342,1852.791Zm-7.83114,1.5054-.00416-.04759Z" transform="translate(403 -544.32564)" style="fill:#89a2f9"/><path d="M970.49844,1847.48154c-.05035.61075-.13946,1.54806-.29778,2.693a10.8761,10.8761,0,0,0-.29778,2.693c.1562,1.31875.74729,1.89049,1.33653,3.08336a9.88922,9.88922,0,0,1,.94612,4.71767" transform="translate(403 -544.32564)" style="fill:#89a2f9"/><path d="M976.35874,1853.01738c-.66422-3.04791-3.5839-5.8395-6.87683-5.44417a6.21718,6.21718,0,0,0-5.02478,4.47016,5.90705,5.90705,0,0,0-.19615,1.12638l4.88064,1.16592-4.88064-1.16592c-.01066.12516-.00938.25-.01238.37495l5.54934,1.01063-.16191-1.23146.16191,1.23146.14583.02657-.14583-.02657.817,6.21445a6.05236,6.05236,0,0,0,3.38076-.996A6.64521,6.64521,0,0,0,976.35874,1853.01738Zm-7.31646,1.279-.00416-.04759Z" transform="translate(403 -544.32564)" style="fill:#89a2f9"/><path d="M974.96585,1849.77646c-.45426.35-1.15952.87847-2.05491,1.48807-1.12067.763-1.50135.94617-1.81919,1.239a3.40957,3.40957,0,0,0-.23572.2491,9.83693,9.83693,0,0,0-1.263,1.74209" transform="translate(403 -544.32564)" style="fill:#89a2f9"/><path d="M967.178,1848.57894c.2544.53455.63466,1.361,1.0566,2.39566a10.16929,10.16929,0,0,0,1.0566,2.39565c.7771,1.01908,1.564,1.19391,2.652,1.88719a9.23523,9.23523,0,0,1,3.113,3.448" transform="translate(403 -544.32564)" style="fill:#89a2f9"/><path d="M964.36117,1853.39953c.53506.08662,1.35567.23136,2.35579.45754a8.57116,8.57116,0,0,0,2.35579.45754c1.16735-.0774,1.69723-.63333,2.7735-1.15044a7.75683,7.75683,0,0,1,4.19365-.66349" transform="translate(403 -544.32564)" style="fill:#89a2f9"/><path d="M955.1837,1853.753c9.90442.407,12.0295.88569,12.03707,1.2585.01348.662-6.63774,1.48935-12.60983,1.62013-6.91995.15152-14.23061-.60376-14.22747-1.27761C940.38536,1854.95287,942.97923,1854.3934,955.1837,1853.753Z" transform="translate(403 -544.32564)" style="fill:#89a2f9"/><polygon points="1359.008 1310.395 1359.35 1308.153 1361.415 1308.187 1361.074 1310.43 1359.008 1310.395" style="fill:#89a2f9"/><polygon points="1359.894 1311.929 1361.959 1311.964 1361.074 1310.43 1359.008 1310.395 1359.894 1311.929" style="fill:#89a2f9"/><path d="M959.47778,1854.35369l-1.06271-1.84066-.34151,2.24236.88559,1.53388Q959.21848,1855.32147,959.47778,1854.35369Z" transform="translate(403 -544.32564)" style="fill:#89a2f9"/><polygon points="1357.696 1310.395 1357.354 1308.153 1355.289 1308.187 1355.63 1310.43 1357.696 1310.395" style="fill:#89a2f9"/><polygon points="1356.81 1311.929 1354.745 1311.964 1355.63 1310.43 1357.696 1310.395 1356.81 1311.929" style="fill:#89a2f9"/><path d="M951.22614,1854.35369l1.06271-1.84066.34151,2.24236-.88559,1.53388Q951.48544,1855.32147,951.22614,1854.35369Z" transform="translate(403 -544.32564)" style="fill:#89a2f9"/><polygon points="1356.352 1309.721 1356.693 1311.964 1358.758 1311.929 1358.417 1309.687 1356.352 1309.721" style="fill:#89a2f9"/><polygon points="1357.237 1308.187 1359.302 1308.153 1358.417 1309.687 1356.352 1309.721 1357.237 1308.187" style="fill:#89a2f9"/><path d="M956.821,1854.41388l-1.06272,1.84065-.34151-2.24235.8856-1.53388Q956.56173,1853.44609,956.821,1854.41388Z" transform="translate(403 -544.32564)" style="fill:#89a2f9"/><polygon points="1352.101 1310.395 1352.442 1308.153 1354.507 1308.187 1354.166 1310.43 1352.101 1310.395" style="fill:#89a2f9"/><polygon points="1352.986 1311.929 1355.052 1311.964 1354.166 1310.43 1352.101 1310.395 1352.986 1311.929" style="fill:#89a2f9"/><path d="M952.57019,1854.35369l-1.06271-1.84066-.34151,2.24236.88559,1.53388Q952.3109,1855.32147,952.57019,1854.35369Z" transform="translate(403 -544.32564)" style="fill:#89a2f9"/><polygon points="1361.665 1309.864 1362.007 1307.621 1364.072 1307.656 1363.73 1309.898 1361.665 1309.864" style="fill:#89a2f9"/><polygon points="1362.551 1311.398 1364.616 1311.432 1363.73 1309.898 1361.665 1309.864 1362.551 1311.398" style="fill:#89a2f9"/><path d="M962.13455,1853.82233l-1.06272-1.84065-.34151,2.24235.8856,1.53389Q961.87526,1854.79012,962.13455,1853.82233Z" transform="translate(403 -544.32564)" style="fill:#89a2f9"/><polygon points="1351.851 1310.395 1351.509 1308.153 1349.444 1308.187 1349.785 1310.43 1351.851 1310.395" style="fill:#89a2f9"/><polygon points="1350.965 1311.929 1348.9 1311.964 1349.785 1310.43 1351.851 1310.395 1350.965 1311.929" style="fill:#89a2f9"/><path d="M945.38125,1854.35369l1.06272-1.84066.34151,2.24236-.8856,1.53388Q945.64055,1855.32147,945.38125,1854.35369Z" transform="translate(403 -544.32564)" style="fill:#89a2f9"/><path d="M807.6393,1842.46964c-39.43142-12.73583-95.14357,16.72613-96.95291,45.03278-.93019,14.55183,12.57163,25.88143,36.02622,45.56257,12.314,10.33286,29.10018,22.47965,89.00595,52.44994,41.58269,20.8036,39.66166,18.03613,54.56913,27.01966,46.352,27.93232,47.90132,44.4277,70.463,49.801,44.37315,10.56775,106.92959-36.91223,102.78069-67.81406-2.59819-19.35183-39.52433-33.56323-113.37663-61.98629-48.79931-18.78116-60.09637-18.6826-82.64839-35.49642C832.23776,1870.7437,833.44739,1850.80542,807.6393,1842.46964Z" transform="translate(403 -544.32564)" style="opacity:0.1"/><path d="M813.99687,1835.05248c-39.43142-12.73583-95.14357,16.72613-96.95291,45.03278-.93019,14.55183,12.57162,25.88142,36.02621,45.56257,12.314,10.33286,29.10018,22.47965,89.006,52.44993,41.58269,20.8036,39.66165,18.03614,54.56912,27.01967,46.352,27.93232,47.90133,44.4277,70.463,49.801,44.37315,10.56775,106.92959-36.91223,102.78069-67.81406-2.59819-19.35183-39.52433-33.56323-113.37664-61.98629-48.7993-18.78116-60.09636-18.6826-82.64838-35.49642C838.59532,1863.32653,839.805,1843.38825,813.99687,1835.05248Z" transform="translate(403 -544.32564)" style="fill:#89a2f9"/><path d="M782.209,1847.23782c-7.04562-4.04462-10.56846-6.06706-13.24493-5.82777-8.58554.76727-16.61166,12.47145-14.30453,19.0727,2.10263,6.0161,12.62563,7.33,13.77473,14.30453a5.8566,5.8566,0,0,0,1.58939,3.70858c1.67385,1.51153,3.79278.84126,6.35757,1.0596,5.41542.46073,11.14689,4.73972,11.12574,8.47676-.01319,2.33105-2.26263,4.063-3.17878,4.76817-2.4282,1.8693-5.4323,2.42315-11.65554,2.11919a96.40249,96.40249,0,0,1-12.71514-1.58939c-13.8513-2.30027-17.63258-1.12427-18.54291-3.17878-1.58008-3.566,15.81328-8.21833,15.89392-16.95352.0348-3.7686-3.0634-7.78528-5.82777-7.947-2.2041-.12883-2.84184,2.27233-6.88736,5.82777-5.76608,5.06748-7.87265,3.1793-13.77473,8.47676-3.181,2.85516-3.09471,3.87543-6.88737,6.88736-2.03046,1.61242-3.18376,2.2162-3.70858,3.70859-1.15227,3.27631,2.01448,7.16726,2.649,7.947,4.63236,5.6917,10.67232,5.13034,22.25148,9.00655,9.85422,3.29882,7.76226,4.46939,15.89392,6.88737,10.51265,3.12575,12.61141.75356,25.43028,3.70858,2.25972.521,7.15763,2.11324,16.95351,5.298,9.10473,2.95993,14.63876,4.76662,17.48331,5.82777,18.5995,6.9391,17.0462,17.592,35.49643,27.01967,11.38928,5.81975,13.53712,2.55534,37.61561,10.59594a59.31465,59.31465,0,0,0,14.83432,3.17879c11.30156,1.31337,14.517-.796,20.6621,1.58939,6.31194,2.45005,5.45985,5.66169,13.77473,12.71514,9.9663,8.45451,20.70139,11.92561,26.48987,13.77473,9.85347,3.14774,12.55578,2.31113,16.20975,3.335a18.60369,18.60369,0,0,1,4.45234,1.96294c11.4582,6.378,20.62252,5.84665,24.90048,13.24493,1.37749,2.38228,1.70558,4.33048,3.70858,5.298,2.28753,1.10486,4.82855-.7008,7.41716-2.11919,9.8668-5.40611,12.00507-2.58328,20.1323-7.947,1.46054-.96388,8.72016-5.84355,7.947-9.00656-.34247-1.40106-2.55608-1.96165-3.17878-2.11919-3.12181-.79055-4.95715,1.14859-9.00656,2.11919a21.48158,21.48158,0,0,1-9.00655,0c-1.85879-.30525-4.77115-1.26292-10.59595-3.17878-1.08452-.35674-1.99265-.65526-3.17878-1.0596-11.26576-3.83922-16.89867-5.7587-21.72169-8.47675-4.47159-2.5199-7.41018-5.02118-12.71514-9.53636-6.34269-5.3986-6.08426-6.23339-10.06615-9.00655-5.82686-4.05807-11.553-5.8733-16.42372-7.41716-7.12684-2.25914-11.96312-2.71108-16.42371-7.41717-1.22891-1.29655-.92915-1.33329-2.11919-2.649-5.31634-5.878-11.69267-5.58047-20.1323-8.47676-10.93018-3.751-8.46751-7.07543-18.01311-9.53635-7.63349-1.96786-12.49745-.69019-15.89392-4.76818-2.68029-3.2181-2.72045-7.69913-2.11919-7.947.61691-.254,1.91431,3.9458,6.35757,6.88737a18.30839,18.30839,0,0,0,4.76817,2.11919c6.99233,2.34192,9.43307,2.36572,13.24494,3.70858,5.35346,1.88585,4.26217,3.319,10.59594,6.35756,7.59333,3.64288,8.86434,1.44065,15.36413,4.76818,5.467,2.79877,5.62871,4.90011,12.71513,9.00656a88.621,88.621,0,0,0,9.00656,4.23837c6.34424,2.78429,9.66117,3.82939,11.65554,4.76818,1.74008.81927,4.88782,2.42212,19.0727,13.77473,7.604,6.08569,6.293,5.29979,8.47676,6.88737,7.98137,5.80216,21.95461,13.72739,24.90048,10.59594,1.833-1.94845-.69181-8.08432-4.23838-11.65554-1.68847-1.70011-3.97419-2.746-8.47676-4.76817-7.81943-3.512-10.59569-3.52207-13.77473-6.88737-1.73012-1.83153-1.43677-2.38848-3.17879-4.76818-4.09027-5.5877-9.38023-7.53434-13.24493-9.53635-7.88177-4.08316-5.77138-6.2916-18.54291-16.95351-7.62049-6.36171-12.22375-10.20481-19.6025-13.77473-8.85315-4.28339-14.512-4.69523-20.1323-11.12575-2.775-3.17516-2.27272-4.07851-5.298-7.41716-2.39476-2.64278-5.92763-5.62858-16.42372-10.06615-6.95656-2.94131-16.47668-6.96627-27.54946-9.00655a58.97133,58.97133,0,0,1-11.12574-3.17879c-3.664-1.445-8.15495-3.64443-7.947-4.23838.22318-.63741,5.7598.84644,9.00655,1.58939,13.47627,3.08385,24.776,1.93449,33.37723,1.0596,11.15078-1.1341,26.1839-2.66322,32.84744-7.947.89423-.70907,3.26195-2.77368,6.35757-2.649,2.23728.09,2.86428,1.24353,6.88736,2.649,3.52879,1.23266,3.54432.51919,6.35757,1.58939,4.78887,1.82144,6.3394,4.49578,7.947,3.70858a2.60157,2.60157,0,0,0,1.0596-3.17878c-.48227-.78745-1.56909-.36864-3.70859-1.0596-1.42072-.45865-3.78133-1.56042-3.70858-2.649.05006-.74813,1.11056-1.48644,2.11919-1.5894,1.521-.15547,2.79508,1.14057,4.23838,2.649,2.28773,2.39107,2.59893,3.92485,4.23838,4.23838.74574.14254,1.81277.04165,2.11919-.5298.52889-.98664-1.41788-2.98683-3.17879-4.76817-2.72814-2.75971-4.12778-4.17552-6.35756-5.298-2.77264-1.39589-4.62144-1.227-10.596-1.58939-6.99957-.42451-7.67611-.871-11.65554-1.05959-11.65438-.55257-14.58185,3.10557-25.43027,3.70858-8.972.49875-6.923-2.00614-22.78129-3.17879-2.429-.17953-3.12769-.16892-24.37068-.52979-12.7022-.21575-13.24247-.23308-14.83432-.5298a82.952,82.952,0,0,1-21.1919-7.41716c-5.426-2.73746-8.37069-4.92934-11.65554-3.70858-1.05959.39372-3.00216,1.852-6.88736,4.76817-2.80815,2.10781-3.83825,3.01478-4.76818,2.649-1.35521-.53316-.80692-3.10454-1.58939-5.82777C793.18027,1853.60806,789.44459,1851.39161,782.209,1847.23782Z" transform="translate(403 -544.32564)" style="fill:#fbb03b"/><path d="M767.9045,1840.88025c-.95935-1.99553-7.08087-1.76737-11.65554.5298-8.22467,4.13-9.88584,14.16277-10.06615,15.36412-.19712,1.31337-1.27114,8.46822,2.649,14.83433,2.69464,4.376,6.31223,6.04584,5.82777,9.00655-.39412,2.40867-3.00178,2.60915-4.23838,4.76818-3.997,6.97842,10.52914,27.0877,19.0727,24.90047,3.18855-.81642,5.95466-4.84345,6.35757-8.47675.50781-4.57908-2.908-6.9999-1.58939-9.53636,1.765-3.3953,9.0136-1.22955,10.06615-3.70858,1.05015-2.47333-5.523-6.14052-12.18534-13.77473-3.89749-4.466-13.06-14.965-10.596-23.84088C763.15514,1845.15355,768.90692,1842.96529,767.9045,1840.88025Z" transform="translate(403 -544.32564)" style="fill:#42210b"/><path d="M786.44741,1885.913c.63909-.0952,1.03987,2.299,3.07362,5.6485.74639,1.22929,3.876,6.384,6.46273,6.007,2.38448-.34742,1.25381-5.188,4.76818-8.47676,4.71016-4.40756,12.08749-.79961,14.30452-4.76818,1.126-2.01571-.268-3.85732,1.5894-6.88736,1.33865-2.18386,2.60339-2.1091,2.649-3.17879.08117-1.905-3.86845-3.58544-17.48331-9.00655-3.87809-1.54412-4.82172-1.9112-4.76818-2.11919.1959-.76158,13.40442,1.92569,24.37068,4.76818,9.85325,2.554,14.73738,3.88992,17.48331,5.82777,4.87431,3.44006,6.7989,7.12355,13.77474,10.59594a37.62933,37.62933,0,0,0,6.09512,2.32149c1.36634.36941,2.405.55385,2.80977.62758,2.48368.45245,14.19574,4.45542,22.35315,6.58729,3.57031.93309,5.1132,1.154,5.298,2.11919.43305,2.26224-7.62508,3.2225-10.06615,8.47675-3.51165,7.55893,7.34583,18.09719,4.76818,20.6621-1.76065,1.75185-6.606-3.38367-14.30453-2.649-.32168.03079-7.7693.84514-12.18534,6.35757-7.14741,8.92171-.53911,22.89227-4.44138,24.49718-1.48624.61128-3.7461-1.41788-8.27375-5.42447-7.94522-7.03068-8.20152-9.77254-13.77474-13.77474-3.17083-2.277-6.17564-3.46049-12.18533-5.82777-8.91589-3.512-10.97532-2.17687-15.36413-5.298-4.07243-2.896-6.217-6.64523-8.47676-10.59595-3.26091-5.70075-2.26987-6.52261-5.82777-12.71513-1.55214-2.7015-2.62389-4.13672-3.17878-6.88737C785.24456,1889.46407,785.70147,1886.02426,786.44741,1885.913Z" transform="translate(403 -544.32564)" style="fill:blue"/><path d="M954.20049,1893.06105c5.15209,0,10.74194,2.39771,10.62707,4.25083-.11688,1.88594-6.141,3.18812-10.62707,3.18812s-10.51018-1.30218-10.62706-3.18812C943.45856,1895.45876,949.0484,1893.06105,954.20049,1893.06105Z" transform="translate(403 -544.32564)" style="fill:lime;stroke:lime;stroke-miterlimit:10"/><path d="M951.54373,1873.69424c-.64052,1.11879.3906,2.4956,1.0627,4.89836,1.99,7.11447-2.10277,12.73257,0,14.6951a2.5127,2.5127,0,0,0,3.18812,0c2.084-1.88371-1.62169-7.10583,0-14.6951.49328-2.30855,1.25509-3.78574.53136-4.89836C955.36575,1872.2181,952.36307,1872.26313,951.54373,1873.69424Z" transform="translate(403 -544.32564)" style="fill:lime;stroke:lime;stroke-miterlimit:10"/><path d="M937.19719,1855.335c-.67833.5731.11954,3.56241,2.12541,5.31354,2.40861,2.10271,4.67289.72895,6.37624,2.65676,1.618,1.8312.08809,3.5797,1.59406,6.37624a7.54924,7.54924,0,0,0,13.81519-.53135c1.24886-2.91242-.40916-4.85989,1.0627-6.37624,1.60022-1.64858,4.00461.12765,6.37624-1.59406,2.42748-1.76222,2.95942-5.85186,2.12541-6.37624-.29434-.185-.67645.12564-1.59405.53135a19.753,19.753,0,0,1-4.78218,1.06271,67.10911,67.10911,0,0,1-10.09572,1.06271,62.09936,62.09936,0,0,1-9.033-.53136,29.6453,29.6453,0,0,1-5.84489-1.0627C938.18038,1855.43733,937.53953,1855.04572,937.19719,1855.335Z" transform="translate(403 -544.32564)" style="fill:lime;stroke:lime;stroke-miterlimit:10"/><path d="M953.66914,1852.67821c7.27439-.13089,16.96218.48757,17.0033,1.59406.03938,1.05953-8.76642,2.55853-17.0033,2.65676-7.90894.09435-16.47753-1.08868-16.47195-2.12541C937.203,1853.71688,946.63,1852.80489,953.66914,1852.67821Z" transform="translate(403 -544.32564)" style="fill:#fff;stroke:#ccc;stroke-miterlimit:10"/><path d="M976.87342,1852.791c-.713-3.22591-3.86938-6.17562-7.437-5.74993a6.71868,6.71868,0,0,0-5.45216,4.74406,6.1526,6.1526,0,0,0-.22213,1.26545l5.37952,1.28508-5.37952-1.28508c-.01047.13482-.00809.26919-.01.40371l6.04584,1.101-.16191-1.23146.16191,1.23146.14583.02657-.14583-.02657.84885,6.45684a6.68264,6.68264,0,0,0,3.65268-1.062A6.97318,6.97318,0,0,0,976.87342,1852.791Zm-7.83114,1.5054-.00416-.04759Z" transform="translate(403 -544.32564)" style="fill:#b7d543;stroke:lime;stroke-miterlimit:10"/><path d="M970.49844,1847.48154c-.05035.61075-.13946,1.54806-.29778,2.693a10.8761,10.8761,0,0,0-.29778,2.693c.1562,1.31875.74729,1.89049,1.33653,3.08336a9.88922,9.88922,0,0,1,.94612,4.71767" transform="translate(403 -544.32564)" style="fill:none;stroke:#39b54a;stroke-miterlimit:10"/><path d="M976.35874,1853.01738c-.66422-3.04791-3.5839-5.8395-6.87683-5.44417a6.21718,6.21718,0,0,0-5.02478,4.47016,5.90705,5.90705,0,0,0-.19615,1.12638l4.88064,1.16592-4.88064-1.16592c-.01066.12516-.00938.25-.01238.37495l5.54934,1.01063-.16191-1.23146.16191,1.23146.14583.02657-.14583-.02657.817,6.21445a6.05236,6.05236,0,0,0,3.38076-.996A6.64521,6.64521,0,0,0,976.35874,1853.01738Zm-7.31646,1.279-.00416-.04759Z" transform="translate(403 -544.32564)" style="fill:none;stroke:#39b54a;stroke-miterlimit:10"/><path d="M974.96585,1849.77646c-.45426.35-1.15952.87847-2.05491,1.48807-1.12067.763-1.50135.94617-1.81919,1.239a3.40957,3.40957,0,0,0-.23572.2491,9.83693,9.83693,0,0,0-1.263,1.74209" transform="translate(403 -544.32564)" style="fill:none;stroke:#39b54a;stroke-miterlimit:10"/><path d="M967.178,1848.57894c.2544.53455.63466,1.361,1.0566,2.39566a10.16929,10.16929,0,0,0,1.0566,2.39565c.7771,1.01908,1.564,1.19391,2.652,1.88719a9.23523,9.23523,0,0,1,3.113,3.448" transform="translate(403 -544.32564)" style="fill:none;stroke:#39b54a;stroke-miterlimit:10"/><path d="M964.36117,1853.39953c.53506.08662,1.35567.23136,2.35579.45754a8.57116,8.57116,0,0,0,2.35579.45754c1.16735-.0774,1.69723-.63333,2.7735-1.15044a7.75683,7.75683,0,0,1,4.19365-.66349" transform="translate(403 -544.32564)" style="fill:none;stroke:#39b54a;stroke-miterlimit:10"/><path d="M955.1837,1853.753c9.90442.407,12.0295.88569,12.03707,1.2585.01348.662-6.63774,1.48935-12.60983,1.62013-6.91995.15152-14.23061-.60376-14.22747-1.27761C940.38536,1854.95287,942.97923,1854.3934,955.1837,1853.753Z" transform="translate(403 -544.32564)" style="fill:#e6e6e6"/><polygon points="1359.008 1310.395 1359.35 1308.153 1361.415 1308.187 1361.074 1310.43 1359.008 1310.395" style="fill:#e6e6e6;stroke:#f2f2f2;stroke-miterlimit:10;stroke-width:0.30000000000000004px"/><polygon points="1359.894 1311.929 1361.959 1311.964 1361.074 1310.43 1359.008 1310.395 1359.894 1311.929" style="fill:#e6e6e6;stroke:#f2f2f2;stroke-miterlimit:10;stroke-width:0.30000000000000004px"/><path d="M959.47778,1854.35369l-1.06271-1.84066-.34151,2.24236.88559,1.53388Q959.21848,1855.32147,959.47778,1854.35369Z" transform="translate(403 -544.32564)" style="fill:#e6e6e6;stroke:#f2f2f2;stroke-miterlimit:10;stroke-width:0.30000000000000004px"/><polygon points="1357.696 1310.395 1357.354 1308.153 1355.289 1308.187 1355.63 1310.43 1357.696 1310.395" style="fill:#e6e6e6;stroke:#f2f2f2;stroke-miterlimit:10;stroke-width:0.30000000000000004px"/><polygon points="1356.81 1311.929 1354.745 1311.964 1355.63 1310.43 1357.696 1310.395 1356.81 1311.929" style="fill:#e6e6e6;stroke:#f2f2f2;stroke-miterlimit:10;stroke-width:0.30000000000000004px"/><path d="M951.22614,1854.35369l1.06271-1.84066.34151,2.24236-.88559,1.53388Q951.48544,1855.32147,951.22614,1854.35369Z" transform="translate(403 -544.32564)" style="fill:#e6e6e6;stroke:#f2f2f2;stroke-miterlimit:10;stroke-width:0.30000000000000004px"/><polygon points="1356.352 1309.721 1356.693 1311.964 1358.758 1311.929 1358.417 1309.687 1356.352 1309.721" style="fill:#e6e6e6;stroke:#f2f2f2;stroke-miterlimit:10;stroke-width:0.30000000000000004px"/><polygon points="1357.237 1308.187 1359.302 1308.153 1358.417 1309.687 1356.352 1309.721 1357.237 1308.187" style="fill:#e6e6e6;stroke:#f2f2f2;stroke-miterlimit:10;stroke-width:0.30000000000000004px"/><path d="M956.821,1854.41388l-1.06272,1.84065-.34151-2.24235.8856-1.53388Q956.56173,1853.44609,956.821,1854.41388Z" transform="translate(403 -544.32564)" style="fill:#e6e6e6;stroke:#f2f2f2;stroke-miterlimit:10;stroke-width:0.30000000000000004px"/><polygon points="1352.101 1310.395 1352.442 1308.153 1354.507 1308.187 1354.166 1310.43 1352.101 1310.395" style="fill:#e6e6e6;stroke:#f2f2f2;stroke-miterlimit:10;stroke-width:0.30000000000000004px"/><polygon points="1352.986 1311.929 1355.052 1311.964 1354.166 1310.43 1352.101 1310.395 1352.986 1311.929" style="fill:#e6e6e6;stroke:#f2f2f2;stroke-miterlimit:10;stroke-width:0.30000000000000004px"/><path d="M952.57019,1854.35369l-1.06271-1.84066-.34151,2.24236.88559,1.53388Q952.3109,1855.32147,952.57019,1854.35369Z" transform="translate(403 -544.32564)" style="fill:#e6e6e6;stroke:#f2f2f2;stroke-miterlimit:10;stroke-width:0.30000000000000004px"/><polygon points="1361.665 1309.864 1362.007 1307.621 1364.072 1307.656 1363.73 1309.898 1361.665 1309.864" style="fill:#e6e6e6;stroke:#f2f2f2;stroke-miterlimit:10;stroke-width:0.30000000000000004px"/><polygon points="1362.551 1311.398 1364.616 1311.432 1363.73 1309.898 1361.665 1309.864 1362.551 1311.398" style="fill:#e6e6e6;stroke:#f2f2f2;stroke-miterlimit:10;stroke-width:0.30000000000000004px"/><path d="M962.13455,1853.82233l-1.06272-1.84065-.34151,2.24235.8856,1.53389Q961.87526,1854.79012,962.13455,1853.82233Z" transform="translate(403 -544.32564)" style="fill:#e6e6e6;stroke:#f2f2f2;stroke-miterlimit:10;stroke-width:0.30000000000000004px"/><polygon points="1351.851 1310.395 1351.509 1308.153 1349.444 1308.187 1349.785 1310.43 1351.851 1310.395" style="fill:#e6e6e6;stroke:#f2f2f2;stroke-miterlimit:10;stroke-width:0.30000000000000004px"/><polygon points="1350.965 1311.929 1348.9 1311.964 1349.785 1310.43 1351.851 1310.395 1350.965 1311.929" style="fill:#e6e6e6;stroke:#f2f2f2;stroke-miterlimit:10;stroke-width:0.30000000000000004px"/><path d="M945.38125,1854.35369l1.06272-1.84066.34151,2.24236-.8856,1.53388Q945.64055,1855.32147,945.38125,1854.35369Z" transform="translate(403 -544.32564)" style="fill:#e6e6e6;stroke:#f2f2f2;stroke-miterlimit:10;stroke-width:0.30000000000000004px"/></g></g></svg>