<svg id="116853c1-9989-43d3-8a8e-d914e150df9c" data-name="Layer 1" xmlns="http://www.w3.org/2000/svg" xmlns:xlink="http://www.w3.org/1999/xlink" viewBox="0 0 508.84 731.36"><defs><clipPath id="71f87d89-5e50-4f79-930f-afdb9ffaa778" transform="translate(-11.29 2.09)"><path d="M487.34,575.9l-49.95,46.22q-17.73,16.43-45.07,29.55l49.95-46.22Q469.6,592.31,487.34,575.9Z" style="fill:none"/></clipPath><clipPath id="4806e561-1727-4583-80c5-19563a730773" transform="translate(-11.29 2.09)"><path d="M363,562.75,313.08,609A60.91,60.91,0,0,0,330,581.25q8-26.52-5.95-51.4L374,483.63q14,24.87,5.95,51.4A60.84,60.84,0,0,1,363,562.75Z" style="fill:none"/></clipPath><clipPath id="a61fcb31-39e4-4a05-b4a7-12fb2d61f22e" transform="translate(-11.29 2.09)"><path d="M319.91,664.22l-50,46.22q-44,21.15-81.25,18.55a109.81,109.81,0,0,1-27.09-5.34q-47.75-15.9-81.73-76.53l50-46.22q34,60.63,81.72,76.53a109.43,109.43,0,0,0,27.09,5.33Q275.88,685.37,319.91,664.22Z" style="fill:none"/></clipPath></defs><title>LargeJ</title><g style="isolation:isolate"><polygon points="362.7 485.71 312.76 531.93 73.28 104.72 123.23 58.5 362.7 485.71" style="fill:#ea5eda"/><g style="isolation:isolate"><g style="clip-path:url(#71f87d89-5e50-4f79-930f-afdb9ffaa778)"><g style="isolation:isolate"><path d="M487.34,575.9l-49.95,46.22q-17.73,16.43-45.07,29.55l49.95-46.22q27.33-13.14,45.07-29.55" transform="translate(-11.29 2.09)" style="fill:#ea5cdb"/></g></g></g><g style="isolation:isolate"><g style="clip-path:url(#4806e561-1727-4583-80c5-19563a730773)"><g style="isolation:isolate"><path d="M363,562.75,313.08,609A60.91,60.91,0,0,0,330,581.25q8-26.52-5.95-51.4L374,483.63q14,24.87,5.95,51.4A60.84,60.84,0,0,1,363,562.75" transform="translate(-11.29 2.09)" style="fill:#ea5cdb"/></g></g></g><polygon points="430.98 607.53 381.04 653.75 258.67 712.53 308.62 666.31 430.98 607.53" style="fill:#ea5cdb"/><polygon points="118.55 602.99 68.6 649.21 0 526.83 49.95 480.6 118.55 602.99" style="fill:#ea5eda"/><path d="M256.3-2.09,495.78,425.13q34,60.63,20.54,105.91t-74.05,74.41L319.91,664.22q-44,21.15-81.26,18.54a109.43,109.43,0,0,1-27.09-5.33q-47.74-15.9-81.72-76.53L61.24,478.52,183,420l68.6,122.39q13.94,24.89,42.12,34a79,79,0,0,0,19,3.8,66.64,66.64,0,0,0,34-6.59q25.15-12.09,33.15-38.61T374,483.63L134.51,56.41Z" transform="translate(-11.29 2.09)" style="fill:#fee235"/><g style="isolation:isolate"><g style="clip-path:url(#a61fcb31-39e4-4a05-b4a7-12fb2d61f22e)"><g style="isolation:isolate"><path d="M319.91,664.22l-50,46.22q-44,21.15-81.25,18.55a109.81,109.81,0,0,1-27.09-5.34q-47.75-15.9-81.73-76.53l50-46.22q34,60.63,81.72,76.53a109.43,109.43,0,0,0,27.09,5.33q37.23,2.61,81.26-18.54" transform="translate(-11.29 2.09)" style="fill:#ea5cdb"/></g></g></g></g></svg>