<svg id="1f9ac337-8b1f-46f2-b87d-53c15be3cd05" data-name="J-logo" xmlns="http://www.w3.org/2000/svg" xmlns:xlink="http://www.w3.org/1999/xlink" viewBox="0 0 162.34 218.34"><defs><clipPath id="38103603-c491-4376-8fae-78af5bb02048" transform="translate(-579.71 -105.5)"><path d="M686.72,282.27l-12.05,11.16a18.8,18.8,0,0,0,6.2-15.7l12-11.15A18.75,18.75,0,0,1,686.72,282.27Z" style="fill:none"/></clipPath><clipPath id="49acc918-f2db-42b6-8059-81e4ffd2b4ec" transform="translate(-579.71 -105.5)"><path d="M731.82,303.14,719.76,314.3q-11.55,10.81-35.93,9.36l12.06-11.15Q720.27,314,731.82,303.14Z" style="fill:none"/></clipPath><clipPath id="de54f2bc-10a3-4f1c-9b72-cc7127e7f520" transform="translate(-579.71 -105.5)"><path d="M646.69,309.59l-12.06,11.16-1.11-.07Q610,319,597.22,307q-13.05-12.27-14.52-35.12l12-11.16q1.49,22.86,14.53,35.13,12.74,12,36.3,13.63Z" style="fill:none"/></clipPath></defs><title>logo</title><g style="isolation:isolate"><polygon points="113.21 161.08 101.15 172.24 90.74 11.16 102.8 0 113.21 161.08" style="fill:#ea5ddb"/><g style="isolation:isolate"><g style="clip-path:url(#38103603-c491-4376-8fae-78af5bb02048)"><g style="isolation:isolate"><path d="M686.72,282.27l-12.05,11.16a18.8,18.8,0,0,0,6.2-15.7l12-11.15a18.75,18.75,0,0,1-6.2,15.69" transform="translate(-579.71 -105.5)" style="fill:#ea5cdb"/></g></g></g><g style="isolation:isolate"><g style="clip-path:url(#49acc918-f2db-42b6-8059-81e4ffd2b4ec)"><g style="isolation:isolate"><path d="M731.82,303.14,719.76,314.3q-11.55,10.81-35.93,9.36l12.06-11.15q24.38,1.44,35.93-9.37" transform="translate(-579.71 -105.5)" style="fill:#ea5cdb"/></g></g></g><polygon points="116.17 207.01 104.12 218.16 54.92 215.25 66.97 204.09 116.17 207.01" style="fill:#ea5eda"/><polygon points="15.04 155.26 2.98 166.42 0 120.28 12.06 109.12 15.04 155.26" style="fill:#ea5ddb"/><path d="M731.49,108.4l10.4,161.08q1.47,22.84-10.07,33.66t-35.93,9.37l-49.2-2.92-1.11-.07q-23.57-1.65-36.3-13.63-13.06-12.27-14.53-35.13l-3-46.14,49,2.9,3,46.14q.59,9.38,8.33,16.56A28,28,0,0,0,669.5,288c7,.41,12.68-1.49,17.22-5.69a18.75,18.75,0,0,0,6.2-15.69L682.51,105.5Z" transform="translate(-579.71 -105.5)" style="fill:#fee235"/><g style="isolation:isolate"><g style="clip-path:url(#de54f2bc-10a3-4f1c-9b72-cc7127e7f520)"><g style="isolation:isolate"><path d="M646.69,309.59l-12.06,11.16-1.11-.07Q610,319,597.22,307q-13.05-12.27-14.52-35.12l12-11.16q1.49,22.86,14.53,35.13,12.74,12,36.3,13.63l1.11.07" transform="translate(-579.71 -105.5)" style="fill:#ea5cdb"/></g></g></g></g></svg>