<svg id="69d2e067-6082-4d69-8ec0-871112972c9a" data-name="Layer 1" xmlns="http://www.w3.org/2000/svg" viewBox="0 0 163.95065 167.56983"><title>muscle</title><path d="M964.86628,1453.77945c.61675.16647,4.03414,1.01644,5.62179-.80311,1.27221-1.458.82345-4.00429,0-5.62178-1.36447-2.68021-3.87919-3.04912-9.63735-5.62179-7.011-3.1324-6.12681-3.8561-9.63734-4.81867-6.94145-1.90332-13.6581.03245-13.6529.80311.004.59626,4.02879.07608,9.63734,2.40934a32.37034,32.37034,0,0,1,8.83423,5.62178C960.80489,1449.989,961.10665,1452.76458,964.86628,1453.77945Z" transform="translate(-817.68632 -1356.33333)" style="fill:aqua"/><path d="M964.86628,1453.77945c.61675.16647,4.03414,1.01644,5.62179-.80311,1.27221-1.458.82345-4.00429,0-5.62178-1.36447-2.68021-3.87919-3.04912-9.63735-5.62179-7.011-3.1324-6.12681-3.8561-9.63734-4.81867-6.94145-1.90332-13.6581.03245-13.6529.80311.004.59626,4.02879.07608,9.63734,2.40934a32.37034,32.37034,0,0,1,8.83423,5.62178C960.80489,1449.989,961.10665,1452.76458,964.86628,1453.77945Z" transform="translate(-817.68632 -1356.33333)" style="opacity:0.05"/><path d="M969.2834,1516.82374c.93566-.0723,3.39916-10.9897-1.60622-20.88091-1.82745-3.61121-5.2042-6.9887-12.04668-13.6529-6.34466-6.17937-6.6269-5.74561-11.24357-10.44046-8.26954-8.40964-7.58-10.02115-12.04668-12.84979-8.26979-5.237-18.76662-4.86357-19.27469-3.21245-.27891.90644,2.69624,1.40677,5.62179,4.81867,4.598,5.36238,1.96572,9.62745,6.42489,16.06224a22.15018,22.15018,0,0,0,7.228,6.4249c7.49114,4.56231,11.54434,1.9244,19.27469,5.62178a29.91531,29.91531,0,0,1,11.24356,9.63735C969.35531,1507.3537,968.40456,1516.89163,969.2834,1516.82374Z" transform="translate(-817.68632 -1356.33333)" style="fill:aqua"/><path d="M969.2834,1516.82374c.93566-.0723,3.39916-10.9897-1.60622-20.88091-1.82745-3.61121-5.2042-6.9887-12.04668-13.6529-6.34466-6.17937-6.6269-5.74561-11.24357-10.44046-8.26954-8.40964-7.58-10.02115-12.04668-12.84979-8.26979-5.237-18.76662-4.86357-19.27469-3.21245-.27891.90644,2.69624,1.40677,5.62179,4.81867,4.598,5.36238,1.96572,9.62745,6.42489,16.06224a22.15018,22.15018,0,0,0,7.228,6.4249c7.49114,4.56231,11.54434,1.9244,19.27469,5.62178a29.91531,29.91531,0,0,1,11.24356,9.63735C969.35531,1507.3537,968.40456,1516.89163,969.2834,1516.82374Z" transform="translate(-817.68632 -1356.33333)" style="opacity:0.05"/><path d="M909.85311,1485.50237c-.081.35352-.45057,1.96676-1.60622,2.40934-1.874.71767-4.0136-2.33277-7.228-4.81867-5.4985-4.25237-11.843-5.07484-16.06224-5.62179-6.65993-.86335-7.36432.8414-11.24356-.80311a15.08319,15.08319,0,0,1-8.83424-10.44045c-.28969-1.41354-.95408-4.65554.80312-6.4249,1.18241-1.1906,3.25328-1.50485,9.63734,0,6.39014,1.50633,9.58524,2.25944,14.456,4.81867C898.55337,1469.23362,911.36807,1478.88964,909.85311,1485.50237Z" transform="translate(-817.68632 -1356.33333)" style="fill:aqua"/><path d="M909.85311,1485.50237c-.081.35352-.45057,1.96676-1.60622,2.40934-1.874.71767-4.0136-2.33277-7.228-4.81867-5.4985-4.25237-11.843-5.07484-16.06224-5.62179-6.65993-.86335-7.36432.8414-11.24356-.80311a15.08319,15.08319,0,0,1-8.83424-10.44045c-.28969-1.41354-.95408-4.65554.80312-6.4249,1.18241-1.1906,3.25328-1.50485,9.63734,0,6.39014,1.50633,9.58524,2.25944,14.456,4.81867C898.55337,1469.23362,911.36807,1478.88964,909.85311,1485.50237Z" transform="translate(-817.68632 -1356.33333)" style="opacity:0.05"/><path d="M827.93569,1467.83391c.63283-.11426,1.07257,2.20371,3.21245,5.62178a37.96658,37.96658,0,0,0,8.52826,8.87144c10.795,8.25788,52.584,14.76684,52.50825,16.025-.0398.66105-11.71149,1.12986-25.20244-.76591a122.8474,122.8474,0,0,1-20.57494-4.85588c-9.35319-3.05-14.08647-4.66019-16.86535-8.83423C825.15426,1477.30557,826.71166,1468.05493,827.93569,1467.83391Z" transform="translate(-817.68632 -1356.33333)" style="fill:aqua"/><path d="M827.93569,1467.83391c.63283-.11426,1.07257,2.20371,3.21245,5.62178a37.96658,37.96658,0,0,0,8.52826,8.87144c10.795,8.25788,52.584,14.76684,52.50825,16.025-.0398.66105-11.71149,1.12986-25.20244-.76591a122.8474,122.8474,0,0,1-20.57494-4.85588c-9.35319-3.05-14.08647-4.66019-16.86535-8.83423C825.15426,1477.30557,826.71166,1468.05493,827.93569,1467.83391Z" transform="translate(-817.68632 -1356.33333)" style="opacity:0.1"/><path d="M835.96681,1470.24325c2.20033-2.67678,5.04288-1.21217,8.03112-4.01556,1.32163-1.23987,3.02741-3.64827,2.40934-5.62179-.64925-2.073-3.2847-1.82112-4.81867-4.01556-1.75461-2.51-.61729-6.14524,0-8.03112,6.62954-20.25392,10.4404-28.10887,10.44045-28.10892,4.599-9.4794,11.09009-18.12492,14.456-28.10891,1.18824-3.52465,2.64124-8.65909,7.228-11.24357,3.72664-2.09984,6.85537-1.01389,8.03111-3.21245,1.6129-3.016-1.89523-9.50938-5.62178-9.63734-.41528-.01427-2.0889.00742-4.81867,3.21244-3.61249,4.24144-3.76562,7.82466-5.62178,12.8498-1.35761,3.67542-1.73039,2.98966-8.03112,13.6529a205.66992,205.66992,0,0,0-12.04668,20.0778c-4.26967,8.13891-2.49757,6.09868-13.65291,33.7307-3.50293,8.67684-6.32843,15.44025-3.21245,20.0778,1.01409,1.50927,3.3049,3.73694,4.81868,3.21245C834.92621,1474.58772,834.22677,1472.36,835.96681,1470.24325Z" transform="translate(-817.68632 -1356.33333)" style="fill:aqua"/><path d="M835.96681,1470.24325c2.20033-2.67678,5.04288-1.21217,8.03112-4.01556,1.32163-1.23987,3.02741-3.64827,2.40934-5.62179-.64925-2.073-3.2847-1.82112-4.81867-4.01556-1.75461-2.51-.61729-6.14524,0-8.03112,6.62954-20.25392,10.4404-28.10887,10.44045-28.10892,4.599-9.4794,11.09009-18.12492,14.456-28.10891,1.18824-3.52465,2.64124-8.65909,7.228-11.24357,3.72664-2.09984,6.85537-1.01389,8.03111-3.21245,1.6129-3.016-1.89523-9.50938-5.62178-9.63734-.41528-.01427-2.0889.00742-4.81867,3.21244-3.61249,4.24144-3.76562,7.82466-5.62178,12.8498-1.35761,3.67542-1.73039,2.98966-8.03112,13.6529a205.66992,205.66992,0,0,0-12.04668,20.0778c-4.26967,8.13891-2.49757,6.09868-13.65291,33.7307-3.50293,8.67684-6.32843,15.44025-3.21245,20.0778,1.01409,1.50927,3.3049,3.73694,4.81868,3.21245C834.92621,1474.58772,834.22677,1472.36,835.96681,1470.24325Z" transform="translate(-817.68632 -1356.33333)" style="opacity:0.05"/><path d="M901.01888,1388.32583c-1.38961-.15936-.87237-3.64411-3.21245-7.228-2.20517-3.3773-5.14072-4.12487-4.81867-5.62179.2923-1.35853,2.89447-1.00428,4.01556-3.21244.74846-1.4742-.01892-2.40505.80311-3.21245,1.303-1.27991,3.98213.32185,4.81868-.80311.65689-.88336-.68979-2.28145,0-3.21245.72958-.98468,2.50908.21065,4.01556-.80311,1.55019-1.04318.81129-3.05456,2.40933-4.01556a3.43915,3.43915,0,0,1,3.21245,0c1.43643.75951,1.49368,2.31759,2.40934,5.62178,1.56323,5.6409,2.793,6.13961,3.21244,10.44046a12.38183,12.38183,0,0,1,0,4.01556c-.55464,2.78452-2.2437,4.53338-5.62178,8.03112-1.2157,1.25873-1.87112,1.79028-2.40934,1.60622-.75889-.2595-1.12849-1.888-.80311-3.21245.74885-3.048,5.08837-4.11629,4.81867-4.81867-.11872-.30921-1.07354-.39832-1.60622,0-.58925.44067-.26185,1.17874-.80311,1.60622-.53342.42131-1.107-.09372-2.40934,0a6.17632,6.17632,0,0,0-2.40933.80312,13.006,13.006,0,0,0-2.40934,1.60622C901.49965,1388.03167,901.45514,1388.37587,901.01888,1388.32583Z" transform="translate(-817.68632 -1356.33333)" style="fill:aqua"/><path d="M901.01888,1388.32583c-1.38961-.15936-.87237-3.64411-3.21245-7.228-2.20517-3.3773-5.14072-4.12487-4.81867-5.62179.2923-1.35853,2.89447-1.00428,4.01556-3.21244.74846-1.4742-.01892-2.40505.80311-3.21245,1.303-1.27991,3.98213.32185,4.81868-.80311.65689-.88336-.68979-2.28145,0-3.21245.72958-.98468,2.50908.21065,4.01556-.80311,1.55019-1.04318.81129-3.05456,2.40933-4.01556a3.43915,3.43915,0,0,1,3.21245,0c1.43643.75951,1.49368,2.31759,2.40934,5.62178,1.56323,5.6409,2.793,6.13961,3.21244,10.44046a12.38183,12.38183,0,0,1,0,4.01556c-.55464,2.78452-2.2437,4.53338-5.62178,8.03112-1.2157,1.25873-1.87112,1.79028-2.40934,1.60622-.75889-.2595-1.12849-1.888-.80311-3.21245.74885-3.048,5.08837-4.11629,4.81867-4.81867-.11872-.30921-1.07354-.39832-1.60622,0-.58925.44067-.26185,1.17874-.80311,1.60622-.53342.42131-1.107-.09372-2.40934,0a6.17632,6.17632,0,0,0-2.40933.80312,13.006,13.006,0,0,0-2.40934,1.60622C901.49965,1388.03167,901.45514,1388.37587,901.01888,1388.32583Z" transform="translate(-817.68632 -1356.33333)" style="opacity:0.05"/><path d="M861.6664,1454.181c-.29411-.36122,2.0615-2.51723,5.62178-6.4249,6.57234-7.21359,8.41439-10.69878,8.83423-10.44045.606.37288-2.1837,8.27738-8.83423,13.6529C864.9161,1452.8859,861.96737,1454.5506,861.6664,1454.181Z" transform="translate(-817.68632 -1356.33333)" style="fill:aqua"/><path d="M861.6664,1454.181c-.29411-.36122,2.0615-2.51723,5.62178-6.4249,6.57234-7.21359,8.41439-10.69878,8.83423-10.44045.606.37288-2.1837,8.27738-8.83423,13.6529C864.9161,1452.8859,861.96737,1454.5506,861.6664,1454.181Z" transform="translate(-817.68632 -1356.33333)" style="opacity:0.05"/><path d="M973.299,1443.74055a11.61847,11.61847,0,0,0-6.02334-2.81089c-10.888-2.3462-14.51538-8.949-22.88869-11.64512-15.31869-4.9325-35.5282,6.72689-35.33693,13.6529.09691,3.50871,5.68384,6.34877,5.62179,6.4249-.10255.12582-10.63658-13.44144-21.684-12.8498-13.00557.69655-23.087,20.82136-24.09336,20.0778-.47361-.34994,2.64365-4.54436,1.60623-5.62178-.83257-.86468-3.66925.97144-10.44046,4.01556a62.39858,62.39858,0,0,1-8.03112,3.21245c-.05264-.12054,11.24146-2.10415,18.47158-10.44046,5.08155-5.859,8.61669-15.12134,7.228-24.09336-1.36765-8.83619-7.45545-17.03034-6.42489-17.66846.4319-.26744,1.50456,1.16972,2.40934.80311,1.20829-.48959.82982-3.67449.80311-5.62178-.11039-8.05416,5.49948-16.69159,12.04668-19.27469a5.32174,5.32174,0,0,1,3.21244-.80311,2.99553,2.99553,0,0,1,2.00778,1.20467c.64072,1.06178-.19371,1.93131,0,3.21244.32686,2.16185,3.41053,4.36786,6.4249,4.01556a5.61441,5.61441,0,0,0,4.01556-2.40933c.91228-1.4278.64655-3.2149.80311-3.21245.20318.00314-.02632,2.952.80311,3.21245.87007.27322,1.67191-2.79884,4.01556-3.21245,1.39128-.24553,2.15229.65287,3.21245,0a3.46948,3.46948,0,0,0,1.34922-1.90925c.2097-.72562.09569-1.26761.257-1.3032.2144-.0473.87512.80846.80311,1.60623-.15936,1.76572-3.76474,1.65754-4.81867,4.01556-.65748,1.47093-.18461,3.5939.80311,4.01556,1.67686.71586,4.98116-3.41053,6.42489-5.62179a12.74858,12.74858,0,0,0,2.40934-5.62178c.31769-2.56953-.49763-4.33854-1.60622-7.228-3.75636-9.79053-2.6535-11.00262-4.81868-12.84979-1.09315-.93262-2.24625-1.36751-11.24356-1.60623a134.40177,134.40177,0,0,0-20.0778.80312c-4.61255.53108-7.347,1.07-9.63735,3.21244a11.98657,11.98657,0,0,0-3.21244,5.62179c-2.49017,8.34023-7.57648,16.29713-12.04668,23.29025-3.50994,5.4909-7.82236,10.66834-13.65291,17.66846a45.43879,45.43879,0,0,0-6.42489,9.63734,55.661,55.661,0,0,0-3.21245,8.83423c0,.0001-2.142,6.82935-5.62179,16.86536-3.49243,10.07257-5.23865,15.10888-5.62178,16.06224-1.63921,4.07918-2.54644,5.90231-2.40934,8.83423.21843,4.6698,2.89506,8.065,4.81868,10.44045,1.7123,2.11449,5.00724,5.61375,12.84979,9.63735a80.7678,80.7678,0,0,0,21.684,7.228,126.6675,126.6675,0,0,0,20.0778,2.40934c8.93163.52116,13.39742.78169,19.27469,0,7.76858-1.03325,19.13837-3.87944,25.69958-8.03112a14.7279,14.7279,0,0,1,3.21245-1.60622c4.03257-1.4131,7.28291-.47911,11.24357,0,6.92419.83762,7.12119-.7914,11.24356,0,9.38946,1.80249,14.96625,11.52017,15.25913,12.04668,4.12424,7.41417,2.38934,13.66261,8.03112,20.0778,2.03327,2.312,3.24529,2.62241,4.01556,2.40933,1.78048-.49253,2.22939-4.06693,2.40934-5.62178,3.5-30.23876,1.60622-44.17106,1.60622-44.17116a119.50193,119.50193,0,0,1-3.21245-17.66846C976.42945,1450.6794,976.3194,1446.63811,973.299,1443.74055Z" transform="translate(-817.68632 -1356.33333)" style="fill:none;stroke:#1b1464;stroke-miterlimit:10;stroke-width:2px"/><path d="M878.13019,1380.69626a59.49725,59.49725,0,0,0-10.44045,16.06224" transform="translate(-817.68632 -1356.33333)" style="fill:none;stroke:#1b1464;stroke-miterlimit:10;stroke-width:2px"/><path d="M862.068,1407.199a78.393,78.393,0,0,0-7.228,44.17116" transform="translate(-817.68632 -1356.33333)" style="fill:none;stroke:#1b1464;stroke-miterlimit:10;stroke-width:2px"/><path d="M850.02127,1411.21452a98.48587,98.48587,0,0,0-15.25913,36.94315" transform="translate(-817.68632 -1356.33333)" style="fill:none;stroke:#1b1464;stroke-miterlimit:10;stroke-width:2px"/><path d="M885.3582,1363.0278c2.70859-.12262,5.66536-.14345,8.83423,0,3.18289.14409,6.13785.43391,8.83423.80311" transform="translate(-817.68632 -1356.33333)" style="fill:none;stroke:#1b1464;stroke-miterlimit:10;stroke-width:2px"/><path d="M885.3582,1366.24025a29.432,29.432,0,0,1,15.25913,3.21244" transform="translate(-817.68632 -1356.33333)" style="fill:none;stroke:#1b1464;stroke-miterlimit:10;stroke-width:2px"/><path d="M885.3582,1369.45269a12.82349,12.82349,0,0,1,8.83423,3.21245" transform="translate(-817.68632 -1356.33333)" style="fill:none;stroke:#1b1464;stroke-miterlimit:10;stroke-width:2px"/><path d="M879.73641,1370.25581q1.99693,2.69447,4.01556,5.62178,1.6812,2.44315,3.21245,4.81867" transform="translate(-817.68632 -1356.33333)" style="fill:none;stroke:#1b1464;stroke-miterlimit:10;stroke-width:2px"/><path d="M894.19243,1379.89315a4.96369,4.96369,0,0,1,2.40934,2.40934,5.06122,5.06122,0,0,1,0,4.01556" transform="translate(-817.68632 -1356.33333)" style="fill:none;stroke:#1b1464;stroke-miterlimit:10;stroke-width:2px"/><path d="M899.0111,1374.27137a9.654,9.654,0,0,1,2.40934,9.63734" transform="translate(-817.68632 -1356.33333)" style="fill:none;stroke:#1b1464;stroke-miterlimit:10;stroke-width:2px"/><path d="M904.63289,1371.862a11.97959,11.97959,0,0,1,2.40933,10.44046" transform="translate(-817.68632 -1356.33333)" style="fill:none;stroke:#1b1464;stroke-miterlimit:10;stroke-width:2px"/><path d="M910.25467,1368.64958a10.47411,10.47411,0,0,1,2.40934,4.01556,10.66429,10.66429,0,0,1,0,6.4249" transform="translate(-817.68632 -1356.33333)" style="fill:none;stroke:#1b1464;stroke-miterlimit:10;stroke-width:2px"/><path d="M829.94347,1464.21991a11.32219,11.32219,0,0,0-3.21245,4.81867c-1.73646,5.19954,1.17056,9.77822,1.60623,10.44045" transform="translate(-817.68632 -1356.33333)" style="fill:none;stroke:#1b1464;stroke-miterlimit:10;stroke-width:2px"/><path d="M838.7777,1474.66036a30.2608,30.2608,0,0,0,15.25913,12.04668,30.82409,30.82409,0,0,0,23.29025-1.60622" transform="translate(-817.68632 -1356.33333)" style="fill:none;stroke:#1b1464;stroke-miterlimit:10;stroke-width:2px"/><path d="M870.09907,1461.81057a15.50449,15.50449,0,0,0,6.4249,7.228c6.98434,3.751,13.42668-1.4503,20.88091.80311,3.6118,1.09188,8.58345,4.27315,12.84979,14.456" transform="translate(-817.68632 -1356.33333)" style="fill:none;stroke:#1b1464;stroke-miterlimit:10;stroke-width:2px"/><path d="M931.13558,1442.53588a10.6363,10.6363,0,0,1,5.62179-1.60622c3.49871.07279,4.95229,2.12851,8.03111,2.40934,1.822.16622,4.5154-.26156,8.03112-3.21245" transform="translate(-817.68632 -1356.33333)" style="fill:none;stroke:#1b1464;stroke-miterlimit:10;stroke-width:2px"/><path d="M925.5138,1456.9919a28.3354,28.3354,0,0,1,8.83423,8.03112c4.87274,6.93424,3.76067,12.57284,8.83423,17.66846a18.88388,18.88388,0,0,0,8.83423,4.81867" transform="translate(-817.68632 -1356.33333)" style="fill:none;stroke:#1b1464;stroke-miterlimit:10;stroke-width:2px"/><path d="M916.67957,1481.08526a11.70725,11.70725,0,0,0,8.83423,5.62178" transform="translate(-817.68632 -1356.33333)" style="fill:none;stroke:#1b1464;stroke-miterlimit:10;stroke-width:2px"/></svg>