<svg id="00139011-1904-4512-aae8-41494de1cd07" data-name="Layer 1" xmlns="http://www.w3.org/2000/svg" viewBox="0 0 172.04073 424.50402"><title>pug</title><path d="M970.5,841.5l-.00488.03656.0235-.025Z" transform="translate(-870 -841.5)" style="fill:#42210b"/><path d="M930,1115c1.109-.1629,4.27612-.6134,9-1,5.278-.43195,22.70325-1.858,41,1,4.95923.77466,49.82855,8.12085,52,25,.52728,4.09888-1.78674,6.246-2,17a78.72754,78.72754,0,0,0,1,14c1.84619,13.01593-3.115,31.1521-9,43-2.76489,5.56635-18.864,36.1792-53,42-23.33136,3.97839-41.553-5.9328-47-9-22.28394-12.548-30.94434-32.62061-34-40-7.05627-17.04077-8.17865-35.86664-6-42a15.73632,15.73632,0,0,0,1-6c-.139-4.09674-1.92426-6.3255-3-9-2.5191-6.26312-.71344-13.89233,2-18,1.336-2.0224,3.00916-3.36853,16-8C917.98938,1116.87347,926.97723,1115.444,930,1115Z" transform="translate(-870 -841.5)" style="fill:#c7b299"/><path d="M952,1171.52357c.69977-.61249,2.24469,1.26056,5,1,3.41821-.32325,4.49243-3.58527,7-3a6.47963,6.47963,0,0,1,2,1,8.13541,8.13541,0,0,1,2,2c1.72815,2.33905,7.44818,2.94043,8,3,7.65729.82678,29.92365,6.355,31,14,.20062,1.42511-.49762,1.76892,0,3,1.41113,3.491,7.70258,2.40051,11,7a6.29508,6.29508,0,0,1,1,2c.7821,2.846-.83514,5.76111-2,7-2.86938,3.05175-8.70154,2.0094-13,1-11.16266-2.62122-33.33173-7.827-47-27C953.65234,1177.82771,950.93188,1172.45844,952,1171.52357Z" transform="translate(-870 -841.5)" style="fill:#a67c52"/><path d="M960.9702,1171.52357c-.69977-.61249-2.24469,1.26056-5,1-3.41821-.32325-4.49243-3.58527-7-3a6.47975,6.47975,0,0,0-2,1,8.1356,8.1356,0,0,0-2,2c-1.72815,2.33905-7.44818,2.94043-8,3-7.65729.82678-29.92364,6.355-31,14-.20062,1.42511.49762,1.76892,0,3-1.41113,3.491-7.70257,2.40051-11,7a6.29508,6.29508,0,0,0-1,2c-.7821,2.846.83515,5.76111,2,7,2.86939,3.05175,8.70154,2.0094,13,1,11.16266-2.62122,33.33173-7.827,47-27C959.31786,1177.82771,962.03832,1172.45844,960.9702,1171.52357Z" transform="translate(-870 -841.5)" style="fill:#a67c52"/><path d="M1040.5,1139.5c-.85986-3.73444-1.37134-4.92285-2-6-2.5813-4.42328-6.87469-6.52075-10-8-3.15741-1.49445-3.37268-1.06976-9-3a124.43337,124.43337,0,0,1-15-6c-5.03461-2.45251-6.544-3.55713-9-3-2.6886.60992-3.51648,2.58435-6.5,2.5-1.69727-.048-2.28717-.71124-5-1a18.96433,18.96433,0,0,0-4,0,23.11217,23.11217,0,0,0,3.5,9.5c4.27081,6.48291,11.41278,9.3877,22,14,2.82935,1.2326,7.0899,3.01093,13,6,4.95264,2.50482,7.616,4.11615,10,7a26.39433,26.39433,0,0,1,4,7c2.20471,5.31311,1.91443,8.623,5,11,.406.31281,1.968,1.51611,3,1,.97754-.48889.99231-2.27679,1-3C1041.64294,1154.00342,1043.11328,1150.84918,1040.5,1139.5Z" transform="translate(-870 -841.5)" style="fill:#42210b"/><path d="M871.54073,1139.5c.85987-3.73444,1.37134-4.92285,2-6,2.5813-4.42328,6.8747-6.52075,10-8,3.15741-1.49445,3.37268-1.06976,9-3a124.43337,124.43337,0,0,0,15-6c5.03461-2.45251,6.544-3.55713,9-3,2.6886.60992,3.51648,2.58435,6.5,2.5,1.69727-.048,2.28717-.71124,5-1a18.96433,18.96433,0,0,1,4,0,23.11217,23.11217,0,0,1-3.5,9.5c-4.27081,6.48291-11.41278,9.3877-22,14-2.82934,1.2326-7.0899,3.01093-13,6-4.95263,2.50482-7.616,4.11615-10,7a26.39461,26.39461,0,0,0-4,7c-2.20471,5.31311-1.91442,8.623-5,11-.406.31281-1.968,1.51611-3,1-.97753-.48889-.99231-2.27679-1-3C870.39779,1154.00342,868.92745,1150.84918,871.54073,1139.5Z" transform="translate(-870 -841.5)" style="fill:#42210b"/><path d="M956,1125c2.64044.093,4.32507,3.59644,5,5a17.26673,17.26673,0,0,1,1,11c-1.136,4.87714-3.41986,5.58575-3,9,.35785,2.9101,2.14349,3.42444,2,6-.1488,2.67059-2.285,6-5,6s-4.8512-3.32941-5-6c-.14252-2.5575,1.61517-3.11829,2-6,.44769-3.35284-1.72632-4.13208-3-9-.34277-1.31-1.8692-7.14392,1-12C951.50958,1128.13757,953.41711,1124.90906,956,1125Z" transform="translate(-870 -841.5)" style="fill:#a67c52"/><path d="M933,1159a4.71545,4.71545,0,0,1,1,4c-.34039,1.63922-1.436,1.86823-2,4a4.21955,4.21955,0,0,0,0,3c.56012,1.11914,1.643,1.226,3,2,1.8186,1.03735,3.97522,3.18518,4,5,.0235,1.71893-2.31738,3.16937-7,6-6.53259,3.94891-9.80292,5.92493-10,6-1.10229.41974-12.641,4.6842-17,0-1.3847-1.488-.50122-2.22015-3-7-1.87311-3.58307-2.80817-4.01068-3-6a8.33853,8.33853,0,0,1,3-7c1.17914-.94971,2.80212-1.31274,6-2,3.81439-.81976,4.24664-.55048,6-1,5.36072-1.37439,5.29419-4.91052,11-7C926.10437,1158.59558,930.908,1156.83649,933,1159Z" transform="translate(-870 -841.5)" style="fill:#42210b"/><path d="M978.96845,1159a4.71545,4.71545,0,0,0-1,4c.34039,1.63922,1.436,1.86823,2,4a4.21955,4.21955,0,0,1,0,3c-.56012,1.11914-1.643,1.226-3,2-1.8186,1.03735-3.97522,3.18518-4,5-.0235,1.71893,2.31738,3.16937,7,6,6.53259,3.94891,9.80292,5.92493,10,6,1.1023.41974,12.641,4.6842,17,0,1.38471-1.488.50122-2.22015,3-7,1.87311-3.58307,2.80817-4.01068,3-6a8.33853,8.33853,0,0,0-3-7c-1.17914-.94971-2.80212-1.31274-6-2-3.81439-.81976-4.24664-.55048-6-1-5.36072-1.37439-5.29419-4.91052-11-7C985.86408,1158.59558,981.06043,1156.83649,978.96845,1159Z" transform="translate(-870 -841.5)" style="fill:#42210b"/><ellipse cx="918.53577" cy="1179.16181" rx="9.51777" ry="6.90437" transform="translate(-1025.17 -702.18744) rotate(-8.00008)" style="fill:#a67c52"/><ellipse cx="993.53577" cy="1179.16181" rx="6.90437" ry="9.51777" transform="translate(-1182.42517 1157.41904) rotate(-81.99992)" style="fill:#a67c52"/><ellipse cx="918.5" cy="1179.25" rx="7.5" ry="7" transform="translate(-969.28407 -756.95928) rotate(-5.00004)" style="fill:#361906"/><ellipse cx="993.5" cy="1179.25" rx="7" ry="7.5" transform="translate(-1137.8525 1224.69007) rotate(-84.99996)" style="fill:#361906"/><circle cx="51" cy="336.5" r="2" style="fill:#fff"/><path d="M956.45947,1182a60.21162,60.21162,0,0,1,6.05493.97507c3.80726.814,11.8913,2.54224,19.17395,7.80057,4.66248,3.36639,3.21839,4.00771,11.10071,10.72578,4.554,3.88124,6.89606,5.842,10.09162,6.8255,6.69958,2.06208,12.55774-.41124,13.119.97507.34693.85682-1.99353,2.29812-4.03662,3.90028-3.86694,3.03246-5.06414,5.374-10.09161,12.67593-3.8465,5.58672-7.6355,11.08988-12.10986,16.5762-5.7663,7.0704-9.17041,11.16577-15.13733,14.62607-2.94959,1.71054-12.3454,7.15937-17.15564,3.90028-3.14057-2.12785-2.61011-6.80478-2.01831-17.55128.28064-5.09638.32452-8.85973.40686-10.24074.58758-9.85272.14892-13.36479.14282-26.812C955.99738,1200.54153,956.07587,1192.20807,956.45947,1182Z" transform="translate(-870 -841.5)" style="fill:#42210b"/><path d="M956.51743,1182a62.0611,62.0611,0,0,0-6.15076.97507c-3.8675.814-12.07946,2.54224-19.4774,7.80057-4.7362,3.36639-3.26928,4.00771-11.27639,10.72578-4.62595,3.88124-7.00519,5.842-10.25126,6.8255-6.8056,2.06208-12.75652-.41124-13.32664.97507-.35239.85682,2.0251,2.29812,4.1005,3.90028,3.92813,3.03246,5.14428,5.374,10.25127,12.67593,3.90741,5.58672,7.75633,11.08988,12.30151,16.5762,5.85756,7.0704,9.31561,11.16577,15.3769,14.62607,2.99629,1.71054,12.54078,7.15937,17.42714,3.90028,3.19032-2.12785,2.65142-6.80478,2.05026-17.55128-.63576-11.36442-.55668-22.75574-1.02513-34.12748C956.25527,1202.9379,956.05448,1193.55909,956.51743,1182Z" transform="translate(-870 -841.5)" style="fill:#42210b"/><path d="M957,1212a48.0432,48.0432,0,0,0,36,13,37.62581,37.62581,0,0,1-73,1,44.51978,44.51978,0,0,0,37-14Z" transform="translate(-870 -841.5)" style="fill:#361906"/><path d="M957,1212a44.69274,44.69274,0,0,1-16,11c-.10565.04248-.20917.07776-.31458.11914A141.44234,141.44234,0,0,0,941,1240c1.20331,15.35974,3.99219,18.85266,5,20,.81317.92578,5.601,6.16956,13,6,7.91864-.1814,12.5813-6.42,13-7,2.0097-2.78381,2.72937-5.73108,3-19,.13519-6.62842.08966-12.46643-.02136-17.30786-.65332-.21436-1.31134-.44019-1.97864-.69214A48.16577,48.16577,0,0,1,957,1212Z" transform="translate(-870 -841.5)" style="fill:#f38181"/><path d="M956.71423,1206.1416a74.55415,74.55415,0,0,0,12.004-9.43176c3.45032-3.34729,4.529-5.06946,4.28711-6.8595-.3211-2.37646-2.84314-3.82287-5.14453-5.14453A22.533,22.533,0,0,0,957,1181.8634a20.20941,20.20941,0,0,0-11.43237,2.84241c-1.93293,1.22327-5.02625,3.18005-5.14453,6.002-.075,1.7898,1.06829,3.30469,5.14453,6.8595A115.949,115.949,0,0,0,956.71423,1206.1416Z" transform="translate(-870 -841.5)" style="fill:#361906"/><circle cx="80.5" cy="352" r="2.5"/><circle cx="92.5" cy="352" r="2.5"/><circle cx="126" cy="336.5" r="2" style="fill:#fff"/></svg>